<svg width="245" height="99" viewBox="0 0 245 99" fill="none" xmlns="http://www.w3.org/2000/svg">
<g filter="url(#filter0_df)">
<path d="M54.1719 63.5391L53.6451 62.689L53.6424 62.6907L54.1719 63.5391ZM40.2715 63.5605L39.7491 64.4132L40.2715 63.5605ZM35.5449 58.2324L34.6439 58.6662L34.645 58.6684L35.5449 58.2324ZM33.8477 50.2402H32.8476L32.8477 50.245L33.8477 50.2402ZM35.502 40.5723L34.5989 40.1428L34.5978 40.1451L35.502 40.5723ZM40.207 35.1797L40.7321 36.0307L40.7338 36.0297L40.207 35.1797ZM54.1074 35.1797L53.5779 36.0281L53.585 36.0324L54.1074 35.1797ZM58.8125 40.5723L57.9073 40.9973L57.9105 41.0039L58.8125 40.5723ZM42.1621 41.1523L42.981 41.7263L42.9833 41.723L42.1621 41.1523ZM40.3789 48.543L39.3789 48.5386V48.543H40.3789ZM52.1953 57.6094L53.0198 58.1753L53.022 58.1721L52.1953 57.6094ZM53.957 50.1758L54.957 50.1802V50.1758H53.957ZM59.4883 50.0684C59.4883 53.0301 58.965 55.5799 57.9501 57.7432L59.7608 58.5927C60.923 56.1154 61.4883 53.2654 61.4883 50.0684H59.4883ZM57.9501 57.7432C56.9378 59.9012 55.5024 61.5381 53.6451 62.6891L54.6986 64.3891C56.9091 63.0192 58.5961 61.0754 59.7608 58.5927L57.9501 57.7432ZM53.6424 62.6907C51.7975 63.8422 49.6644 64.4297 47.2109 64.4297V66.4297C49.9997 66.4297 52.5072 65.7568 54.7013 64.3874L53.6424 62.6907ZM47.2109 64.4297C44.7863 64.4297 42.657 63.8493 40.7939 62.7079L39.7491 64.4132C41.9537 65.764 44.4507 66.4297 47.2109 66.4297V64.4297ZM40.7939 62.7079C38.9354 61.5692 37.4851 59.9436 36.4449 57.7964L34.645 58.6684C35.8391 61.1332 37.5399 63.0597 39.7491 64.4132L40.7939 62.7079ZM36.4459 57.7986C35.4032 55.6329 34.8614 53.1195 34.8476 50.2355L32.8477 50.245C32.8626 53.3766 33.4523 56.1913 34.6439 58.6662L36.4459 57.7986ZM34.8477 50.2402V48.6934H32.8477V50.2402H34.8477ZM34.8477 48.6934C34.8477 45.7335 35.3774 43.1772 36.4061 40.9994L34.5978 40.1451C33.4208 42.6366 32.8477 45.4943 32.8477 48.6934H34.8477ZM36.405 41.0018C37.4477 38.8094 38.8922 37.166 40.7321 36.0307L39.6819 34.3287C37.4828 35.6856 35.7906 37.6372 34.5989 40.1428L36.405 41.0018ZM40.7338 36.0297C42.5954 34.876 44.7301 34.2891 47.168 34.2891V32.2891C44.3923 32.2891 41.8864 32.9625 39.6803 34.3297L40.7338 36.0297ZM47.168 34.2891C49.606 34.2891 51.7322 34.876 53.578 36.028L54.6369 34.3314C52.4436 32.9625 49.9435 32.2891 47.168 32.2891V34.2891ZM53.585 36.0324C55.4376 37.1674 56.8799 38.809 57.9073 40.9973L59.7177 40.1473C58.5394 37.6376 56.845 35.6842 54.6298 34.327L53.585 36.0324ZM57.9105 41.0039C58.9523 43.1812 59.4883 45.7289 59.4883 48.6719H61.4883C61.4883 45.4847 60.907 42.6326 59.7145 40.1406L57.9105 41.0039ZM59.4883 48.6719V50.0684H61.4883V48.6719H59.4883ZM54.957 48.6504C54.957 45.2769 54.3576 42.5493 53.0187 40.6064L51.3719 41.7412C52.382 43.2072 52.957 45.464 52.957 48.6504H54.957ZM53.0187 40.6064C51.6465 38.6149 49.6538 37.6172 47.168 37.6172V39.6172C49.0364 39.6172 50.3952 40.3239 51.3719 41.7412L53.0187 40.6064ZM47.168 37.6172C44.6974 37.6172 42.7133 38.6068 41.3409 40.5817L42.9833 41.723C43.9599 40.3177 45.313 39.6172 47.168 39.6172V37.6172ZM41.3432 40.5784C40.0012 42.4932 39.3937 45.1939 39.3789 48.5386L41.3789 48.5474C41.3928 45.3894 41.974 43.1631 42.981 41.7263L41.3432 40.5784ZM39.3789 48.543V50.0684H41.3789V48.543H39.3789ZM39.3789 50.0684C39.3789 53.3658 39.982 56.0668 41.3086 58.0567L42.9727 56.9473C41.9503 55.4136 41.3789 53.1589 41.3789 50.0684H39.3789ZM41.3086 58.0567C42.6776 60.1102 44.6876 61.1445 47.2109 61.1445V59.1445C45.3228 59.1445 43.9526 58.4171 42.9727 56.9473L41.3086 58.0567ZM47.2109 61.1445C49.6817 61.1445 51.6612 60.1544 53.0198 58.1753L51.3709 57.0434C50.4091 58.4446 49.0657 59.1445 47.2109 59.1445V61.1445ZM53.022 58.1721C54.3418 56.2331 54.9423 53.5249 54.957 50.1802L52.957 50.1714C52.9431 53.3293 52.3691 55.5768 51.3686 57.0467L53.022 58.1721ZM54.957 50.1758V48.6504H52.957V50.1758H54.957ZM86.334 52.2168L87.18 51.6836L86.8858 51.2168H86.334V52.2168ZM82.6172 52.2168V51.2168H81.6172V52.2168H82.6172ZM82.6172 65V66H83.6172V65H82.6172ZM76.1719 65H75.1719V66H76.1719V65ZM76.1719 33.7188V32.7188H75.1719V33.7188H76.1719ZM82.6172 33.7188H83.6172V32.7188H82.6172V33.7188ZM82.6172 46.2441H81.6172V47.2441H82.6172V46.2441ZM85.5605 46.2441V47.2441H86.1216L86.414 46.7653L85.5605 46.2441ZM93.209 33.7188V32.7188H92.6479L92.3555 33.1976L93.209 33.7188ZM101.072 33.7188L101.91 34.2647L102.918 32.7188H101.072V33.7188ZM91.4258 48.5215L90.588 47.9755L90.2336 48.5194L90.5861 49.0645L91.4258 48.5215ZM102.082 65V66H103.92L102.922 64.457L102.082 65ZM94.3906 65L93.5446 65.5332L93.8388 66H94.3906V65ZM86.334 51.2168H82.6172V53.2168H86.334V51.2168ZM81.6172 52.2168V65H83.6172V52.2168H81.6172ZM82.6172 64H76.1719V66H82.6172V64ZM77.1719 65V33.7188H75.1719V65H77.1719ZM76.1719 34.7188H82.6172V32.7188H76.1719V34.7188ZM81.6172 33.7188V46.2441H83.6172V33.7188H81.6172ZM82.6172 47.2441H85.5605V45.2441H82.6172V47.2441ZM86.414 46.7653L94.0624 34.2399L92.3555 33.1976L84.7071 45.723L86.414 46.7653ZM93.209 34.7188H101.072V32.7188H93.209V34.7188ZM100.234 33.1728L90.588 47.9755L92.2636 49.0675L101.91 34.2647L100.234 33.1728ZM90.5861 49.0645L101.242 65.543L102.922 64.457L92.2655 47.9785L90.5861 49.0645ZM102.082 64H94.3906V66H102.082V64ZM95.2366 64.4668L87.18 51.6836L85.488 52.75L93.5446 65.5332L95.2366 64.4668ZM130.033 65V66H131.033V65H130.033ZM123.588 65H122.588V66H123.588V65ZM123.588 51.5938H124.588V50.5938H123.588V51.5938ZM111.02 51.5938V50.5938H110.02V51.5938H111.02ZM111.02 65V66H112.02V65H111.02ZM104.574 65H103.574V66H104.574V65ZM104.574 33.7188V32.7188H103.574V33.7188H104.574ZM111.02 33.7188H112.02V32.7188H111.02V33.7188ZM111.02 46.3945H110.02V47.3945H111.02V46.3945ZM123.588 46.3945V47.3945H124.588V46.3945H123.588ZM123.588 33.7188V32.7188H122.588V33.7188H123.588ZM130.033 33.7188H131.033V32.7188H130.033V33.7188ZM130.033 64H123.588V66H130.033V64ZM124.588 65V51.5938H122.588V65H124.588ZM123.588 50.5938H111.02V52.5938H123.588V50.5938ZM110.02 51.5938V65H112.02V51.5938H110.02ZM111.02 64H104.574V66H111.02V64ZM105.574 65V33.7188H103.574V65H105.574ZM104.574 34.7188H111.02V32.7188H104.574V34.7188ZM110.02 33.7188V46.3945H112.02V33.7188H110.02ZM111.02 47.3945H123.588V45.3945H111.02V47.3945ZM124.588 46.3945V33.7188H122.588V46.3945H124.588ZM123.588 34.7188H130.033V32.7188H123.588V34.7188ZM129.033 33.7188V65H131.033V33.7188H129.033ZM154.439 33.7188V32.7188H153.874L153.583 33.2032L154.439 33.7188ZM160.906 33.7188H161.906V32.7188H160.906V33.7188ZM160.906 65V66H161.906V65H160.906ZM154.439 65H153.439V66H154.439V65ZM154.439 44.2246H155.439V40.6292L153.583 43.7083L154.439 44.2246ZM141.914 65V66H142.479L142.77 65.5163L141.914 65ZM135.469 65H134.469V66H135.469V65ZM135.469 33.7188V32.7188H134.469V33.7188H135.469ZM141.914 33.7188H142.914V32.7188H141.914V33.7188ZM141.914 54.5371H140.914V58.1389L142.771 55.0526L141.914 54.5371ZM154.439 34.7188H160.906V32.7188H154.439V34.7188ZM159.906 33.7188V65H161.906V33.7188H159.906ZM160.906 64H154.439V66H160.906V64ZM155.439 65V44.2246H153.439V65H155.439ZM153.583 43.7083L141.058 64.4837L142.77 65.5163L155.296 44.7409L153.583 43.7083ZM141.914 64H135.469V66H141.914V64ZM136.469 65V33.7188H134.469V65H136.469ZM135.469 34.7188H141.914V32.7188H135.469V34.7188ZM140.914 33.7188V54.5371H142.914V33.7188H140.914ZM142.771 55.0526L155.296 34.2343L153.583 33.2032L141.057 54.0216L142.771 55.0526ZM187.01 38.9395V39.9395H188.01V38.9395H187.01ZM172.98 38.9395V37.9395H171.98V38.9395H172.98ZM172.98 65V66H173.98V65H172.98ZM166.535 65H165.535V66H166.535V65ZM166.535 33.7188V32.7188H165.535V33.7188H166.535ZM187.01 33.7188H188.01V32.7188H187.01V33.7188ZM187.01 37.9395H172.98V39.9395H187.01V37.9395ZM171.98 38.9395V65H173.98V38.9395H171.98ZM172.98 64H166.535V66H172.98V64ZM167.535 65V33.7188H165.535V65H167.535ZM166.535 34.7188H187.01V32.7188H166.535V34.7188ZM186.01 33.7188V38.9395H188.01V33.7188H186.01ZM209.848 51.4434V52.4434H210.848V51.4434H209.848ZM197.473 51.4434V50.4434H196.473V51.4434H197.473ZM197.473 59.8223H196.473V60.8223H197.473V59.8223ZM211.996 59.8223H212.996V58.8223H211.996V59.8223ZM211.996 65V66H212.996V65H211.996ZM191.027 65H190.027V66H191.027V65ZM191.027 33.7188V32.7188H190.027V33.7188H191.027ZM211.953 33.7188H212.953V32.7188H211.953V33.7188ZM211.953 38.9395V39.9395H212.953V38.9395H211.953ZM197.473 38.9395V37.9395H196.473V38.9395H197.473ZM197.473 46.3945H196.473V47.3945H197.473V46.3945ZM209.848 46.3945H210.848V45.3945H209.848V46.3945ZM209.848 50.4434H197.473V52.4434H209.848V50.4434ZM196.473 51.4434V59.8223H198.473V51.4434H196.473ZM197.473 60.8223H211.996V58.8223H197.473V60.8223ZM210.996 59.8223V65H212.996V59.8223H210.996ZM211.996 64H191.027V66H211.996V64ZM192.027 65V33.7188H190.027V65H192.027ZM191.027 34.7188H211.953V32.7188H191.027V34.7188ZM210.953 33.7188V38.9395H212.953V33.7188H210.953ZM211.953 37.9395H197.473V39.9395H211.953V37.9395ZM196.473 38.9395V46.3945H198.473V38.9395H196.473ZM197.473 47.3945H209.848V45.3945H197.473V47.3945ZM208.848 46.3945V51.4434H210.848V46.3945H208.848Z" fill="#F04196"/>
</g>
<g filter="url(#filter1_df)">
<path d="M54.1719 63.5391L53.6451 62.689L53.6424 62.6907L54.1719 63.5391ZM40.2715 63.5605L39.7491 64.4132L40.2715 63.5605ZM35.5449 58.2324L34.6439 58.6662L34.645 58.6684L35.5449 58.2324ZM33.8477 50.2402H32.8476L32.8477 50.245L33.8477 50.2402ZM35.502 40.5723L34.5989 40.1428L34.5978 40.1451L35.502 40.5723ZM40.207 35.1797L40.7321 36.0307L40.7338 36.0297L40.207 35.1797ZM54.1074 35.1797L53.5779 36.0281L53.585 36.0324L54.1074 35.1797ZM58.8125 40.5723L57.9073 40.9973L57.9105 41.0039L58.8125 40.5723ZM42.1621 41.1523L42.981 41.7263L42.9833 41.723L42.1621 41.1523ZM40.3789 48.543L39.3789 48.5386V48.543H40.3789ZM52.1953 57.6094L53.0198 58.1753L53.022 58.1721L52.1953 57.6094ZM53.957 50.1758L54.957 50.1802V50.1758H53.957ZM59.4883 50.0684C59.4883 53.0301 58.965 55.5799 57.9501 57.7432L59.7608 58.5927C60.923 56.1154 61.4883 53.2654 61.4883 50.0684H59.4883ZM57.9501 57.7432C56.9378 59.9012 55.5024 61.5381 53.6451 62.6891L54.6986 64.3891C56.9091 63.0192 58.5961 61.0754 59.7608 58.5927L57.9501 57.7432ZM53.6424 62.6907C51.7975 63.8422 49.6644 64.4297 47.2109 64.4297V66.4297C49.9997 66.4297 52.5072 65.7568 54.7013 64.3874L53.6424 62.6907ZM47.2109 64.4297C44.7863 64.4297 42.657 63.8493 40.7939 62.7079L39.7491 64.4132C41.9537 65.764 44.4507 66.4297 47.2109 66.4297V64.4297ZM40.7939 62.7079C38.9354 61.5692 37.4851 59.9436 36.4449 57.7964L34.645 58.6684C35.8391 61.1332 37.5399 63.0597 39.7491 64.4132L40.7939 62.7079ZM36.4459 57.7986C35.4032 55.6329 34.8614 53.1195 34.8476 50.2355L32.8477 50.245C32.8626 53.3766 33.4523 56.1913 34.6439 58.6662L36.4459 57.7986ZM34.8477 50.2402V48.6934H32.8477V50.2402H34.8477ZM34.8477 48.6934C34.8477 45.7335 35.3774 43.1772 36.4061 40.9994L34.5978 40.1451C33.4208 42.6366 32.8477 45.4943 32.8477 48.6934H34.8477ZM36.405 41.0018C37.4477 38.8094 38.8922 37.166 40.7321 36.0307L39.6819 34.3287C37.4828 35.6856 35.7906 37.6372 34.5989 40.1428L36.405 41.0018ZM40.7338 36.0297C42.5954 34.876 44.7301 34.2891 47.168 34.2891V32.2891C44.3923 32.2891 41.8864 32.9625 39.6803 34.3297L40.7338 36.0297ZM47.168 34.2891C49.606 34.2891 51.7322 34.876 53.578 36.028L54.6369 34.3314C52.4436 32.9625 49.9435 32.2891 47.168 32.2891V34.2891ZM53.585 36.0324C55.4376 37.1674 56.8799 38.809 57.9073 40.9973L59.7177 40.1473C58.5394 37.6376 56.845 35.6842 54.6298 34.327L53.585 36.0324ZM57.9105 41.0039C58.9523 43.1812 59.4883 45.7289 59.4883 48.6719H61.4883C61.4883 45.4847 60.907 42.6326 59.7145 40.1406L57.9105 41.0039ZM59.4883 48.6719V50.0684H61.4883V48.6719H59.4883ZM54.957 48.6504C54.957 45.2769 54.3576 42.5493 53.0187 40.6064L51.3719 41.7412C52.382 43.2072 52.957 45.464 52.957 48.6504H54.957ZM53.0187 40.6064C51.6465 38.6149 49.6538 37.6172 47.168 37.6172V39.6172C49.0364 39.6172 50.3952 40.3239 51.3719 41.7412L53.0187 40.6064ZM47.168 37.6172C44.6974 37.6172 42.7133 38.6068 41.3409 40.5817L42.9833 41.723C43.9599 40.3177 45.313 39.6172 47.168 39.6172V37.6172ZM41.3432 40.5784C40.0012 42.4932 39.3937 45.1939 39.3789 48.5386L41.3789 48.5474C41.3928 45.3894 41.974 43.1631 42.981 41.7263L41.3432 40.5784ZM39.3789 48.543V50.0684H41.3789V48.543H39.3789ZM39.3789 50.0684C39.3789 53.3658 39.982 56.0668 41.3086 58.0567L42.9727 56.9473C41.9503 55.4136 41.3789 53.1589 41.3789 50.0684H39.3789ZM41.3086 58.0567C42.6776 60.1102 44.6876 61.1445 47.2109 61.1445V59.1445C45.3228 59.1445 43.9526 58.4171 42.9727 56.9473L41.3086 58.0567ZM47.2109 61.1445C49.6817 61.1445 51.6612 60.1544 53.0198 58.1753L51.3709 57.0434C50.4091 58.4446 49.0657 59.1445 47.2109 59.1445V61.1445ZM53.022 58.1721C54.3418 56.2331 54.9423 53.5249 54.957 50.1802L52.957 50.1714C52.9431 53.3293 52.3691 55.5768 51.3686 57.0467L53.022 58.1721ZM54.957 50.1758V48.6504H52.957V50.1758H54.957ZM86.334 52.2168L87.18 51.6836L86.8858 51.2168H86.334V52.2168ZM82.6172 52.2168V51.2168H81.6172V52.2168H82.6172ZM82.6172 65V66H83.6172V65H82.6172ZM76.1719 65H75.1719V66H76.1719V65ZM76.1719 33.7188V32.7188H75.1719V33.7188H76.1719ZM82.6172 33.7188H83.6172V32.7188H82.6172V33.7188ZM82.6172 46.2441H81.6172V47.2441H82.6172V46.2441ZM85.5605 46.2441V47.2441H86.1216L86.414 46.7653L85.5605 46.2441ZM93.209 33.7188V32.7188H92.6479L92.3555 33.1976L93.209 33.7188ZM101.072 33.7188L101.91 34.2647L102.918 32.7188H101.072V33.7188ZM91.4258 48.5215L90.588 47.9755L90.2336 48.5194L90.5861 49.0645L91.4258 48.5215ZM102.082 65V66H103.92L102.922 64.457L102.082 65ZM94.3906 65L93.5446 65.5332L93.8388 66H94.3906V65ZM86.334 51.2168H82.6172V53.2168H86.334V51.2168ZM81.6172 52.2168V65H83.6172V52.2168H81.6172ZM82.6172 64H76.1719V66H82.6172V64ZM77.1719 65V33.7188H75.1719V65H77.1719ZM76.1719 34.7188H82.6172V32.7188H76.1719V34.7188ZM81.6172 33.7188V46.2441H83.6172V33.7188H81.6172ZM82.6172 47.2441H85.5605V45.2441H82.6172V47.2441ZM86.414 46.7653L94.0624 34.2399L92.3555 33.1976L84.7071 45.723L86.414 46.7653ZM93.209 34.7188H101.072V32.7188H93.209V34.7188ZM100.234 33.1728L90.588 47.9755L92.2636 49.0675L101.91 34.2647L100.234 33.1728ZM90.5861 49.0645L101.242 65.543L102.922 64.457L92.2655 47.9785L90.5861 49.0645ZM102.082 64H94.3906V66H102.082V64ZM95.2366 64.4668L87.18 51.6836L85.488 52.75L93.5446 65.5332L95.2366 64.4668ZM130.033 65V66H131.033V65H130.033ZM123.588 65H122.588V66H123.588V65ZM123.588 51.5938H124.588V50.5938H123.588V51.5938ZM111.02 51.5938V50.5938H110.02V51.5938H111.02ZM111.02 65V66H112.02V65H111.02ZM104.574 65H103.574V66H104.574V65ZM104.574 33.7188V32.7188H103.574V33.7188H104.574ZM111.02 33.7188H112.02V32.7188H111.02V33.7188ZM111.02 46.3945H110.02V47.3945H111.02V46.3945ZM123.588 46.3945V47.3945H124.588V46.3945H123.588ZM123.588 33.7188V32.7188H122.588V33.7188H123.588ZM130.033 33.7188H131.033V32.7188H130.033V33.7188ZM130.033 64H123.588V66H130.033V64ZM124.588 65V51.5938H122.588V65H124.588ZM123.588 50.5938H111.02V52.5938H123.588V50.5938ZM110.02 51.5938V65H112.02V51.5938H110.02ZM111.02 64H104.574V66H111.02V64ZM105.574 65V33.7188H103.574V65H105.574ZM104.574 34.7188H111.02V32.7188H104.574V34.7188ZM110.02 33.7188V46.3945H112.02V33.7188H110.02ZM111.02 47.3945H123.588V45.3945H111.02V47.3945ZM124.588 46.3945V33.7188H122.588V46.3945H124.588ZM123.588 34.7188H130.033V32.7188H123.588V34.7188ZM129.033 33.7188V65H131.033V33.7188H129.033ZM154.439 33.7188V32.7188H153.874L153.583 33.2032L154.439 33.7188ZM160.906 33.7188H161.906V32.7188H160.906V33.7188ZM160.906 65V66H161.906V65H160.906ZM154.439 65H153.439V66H154.439V65ZM154.439 44.2246H155.439V40.6292L153.583 43.7083L154.439 44.2246ZM141.914 65V66H142.479L142.77 65.5163L141.914 65ZM135.469 65H134.469V66H135.469V65ZM135.469 33.7188V32.7188H134.469V33.7188H135.469ZM141.914 33.7188H142.914V32.7188H141.914V33.7188ZM141.914 54.5371H140.914V58.1389L142.771 55.0526L141.914 54.5371ZM154.439 34.7188H160.906V32.7188H154.439V34.7188ZM159.906 33.7188V65H161.906V33.7188H159.906ZM160.906 64H154.439V66H160.906V64ZM155.439 65V44.2246H153.439V65H155.439ZM153.583 43.7083L141.058 64.4837L142.77 65.5163L155.296 44.7409L153.583 43.7083ZM141.914 64H135.469V66H141.914V64ZM136.469 65V33.7188H134.469V65H136.469ZM135.469 34.7188H141.914V32.7188H135.469V34.7188ZM140.914 33.7188V54.5371H142.914V33.7188H140.914ZM142.771 55.0526L155.296 34.2343L153.583 33.2032L141.057 54.0216L142.771 55.0526ZM187.01 38.9395V39.9395H188.01V38.9395H187.01ZM172.98 38.9395V37.9395H171.98V38.9395H172.98ZM172.98 65V66H173.98V65H172.98ZM166.535 65H165.535V66H166.535V65ZM166.535 33.7188V32.7188H165.535V33.7188H166.535ZM187.01 33.7188H188.01V32.7188H187.01V33.7188ZM187.01 37.9395H172.98V39.9395H187.01V37.9395ZM171.98 38.9395V65H173.98V38.9395H171.98ZM172.98 64H166.535V66H172.98V64ZM167.535 65V33.7188H165.535V65H167.535ZM166.535 34.7188H187.01V32.7188H166.535V34.7188ZM186.01 33.7188V38.9395H188.01V33.7188H186.01ZM209.848 51.4434V52.4434H210.848V51.4434H209.848ZM197.473 51.4434V50.4434H196.473V51.4434H197.473ZM197.473 59.8223H196.473V60.8223H197.473V59.8223ZM211.996 59.8223H212.996V58.8223H211.996V59.8223ZM211.996 65V66H212.996V65H211.996ZM191.027 65H190.027V66H191.027V65ZM191.027 33.7188V32.7188H190.027V33.7188H191.027ZM211.953 33.7188H212.953V32.7188H211.953V33.7188ZM211.953 38.9395V39.9395H212.953V38.9395H211.953ZM197.473 38.9395V37.9395H196.473V38.9395H197.473ZM197.473 46.3945H196.473V47.3945H197.473V46.3945ZM209.848 46.3945H210.848V45.3945H209.848V46.3945ZM209.848 50.4434H197.473V52.4434H209.848V50.4434ZM196.473 51.4434V59.8223H198.473V51.4434H196.473ZM197.473 60.8223H211.996V58.8223H197.473V60.8223ZM210.996 59.8223V65H212.996V59.8223H210.996ZM211.996 64H191.027V66H211.996V64ZM192.027 65V33.7188H190.027V65H192.027ZM191.027 34.7188H211.953V32.7188H191.027V34.7188ZM210.953 33.7188V38.9395H212.953V33.7188H210.953ZM211.953 37.9395H197.473V39.9395H211.953V37.9395ZM196.473 38.9395V46.3945H198.473V38.9395H196.473ZM197.473 47.3945H209.848V45.3945H197.473V47.3945ZM208.848 46.3945V51.4434H210.848V46.3945H208.848Z" fill="#F04196"/>
</g>
<g filter="url(#filter2_f)">
<path d="M54.1719 63.5391L53.6451 62.689L53.6424 62.6907L54.1719 63.5391ZM40.2715 63.5605L39.7491 64.4132L40.2715 63.5605ZM35.5449 58.2324L34.6439 58.6662L34.645 58.6684L35.5449 58.2324ZM33.8477 50.2402H32.8476L32.8477 50.245L33.8477 50.2402ZM35.502 40.5723L34.5989 40.1428L34.5978 40.1451L35.502 40.5723ZM40.207 35.1797L40.7321 36.0307L40.7338 36.0297L40.207 35.1797ZM54.1074 35.1797L53.5779 36.0281L53.585 36.0324L54.1074 35.1797ZM58.8125 40.5723L57.9073 40.9973L57.9105 41.0039L58.8125 40.5723ZM42.1621 41.1523L42.981 41.7263L42.9833 41.723L42.1621 41.1523ZM40.3789 48.543L39.3789 48.5386V48.543H40.3789ZM52.1953 57.6094L53.0198 58.1753L53.022 58.1721L52.1953 57.6094ZM53.957 50.1758L54.957 50.1802V50.1758H53.957ZM59.4883 50.0684C59.4883 53.0301 58.965 55.5799 57.9501 57.7432L59.7608 58.5927C60.923 56.1154 61.4883 53.2654 61.4883 50.0684H59.4883ZM57.9501 57.7432C56.9378 59.9012 55.5024 61.5381 53.6451 62.6891L54.6986 64.3891C56.9091 63.0192 58.5961 61.0754 59.7608 58.5927L57.9501 57.7432ZM53.6424 62.6907C51.7975 63.8422 49.6644 64.4297 47.2109 64.4297V66.4297C49.9997 66.4297 52.5072 65.7568 54.7013 64.3874L53.6424 62.6907ZM47.2109 64.4297C44.7863 64.4297 42.657 63.8493 40.7939 62.7079L39.7491 64.4132C41.9537 65.764 44.4507 66.4297 47.2109 66.4297V64.4297ZM40.7939 62.7079C38.9354 61.5692 37.4851 59.9436 36.4449 57.7964L34.645 58.6684C35.8391 61.1332 37.5399 63.0597 39.7491 64.4132L40.7939 62.7079ZM36.4459 57.7986C35.4032 55.6329 34.8614 53.1195 34.8476 50.2355L32.8477 50.245C32.8626 53.3766 33.4523 56.1913 34.6439 58.6662L36.4459 57.7986ZM34.8477 50.2402V48.6934H32.8477V50.2402H34.8477ZM34.8477 48.6934C34.8477 45.7335 35.3774 43.1772 36.4061 40.9994L34.5978 40.1451C33.4208 42.6366 32.8477 45.4943 32.8477 48.6934H34.8477ZM36.405 41.0018C37.4477 38.8094 38.8922 37.166 40.7321 36.0307L39.6819 34.3287C37.4828 35.6856 35.7906 37.6372 34.5989 40.1428L36.405 41.0018ZM40.7338 36.0297C42.5954 34.876 44.7301 34.2891 47.168 34.2891V32.2891C44.3923 32.2891 41.8864 32.9625 39.6803 34.3297L40.7338 36.0297ZM47.168 34.2891C49.606 34.2891 51.7322 34.876 53.578 36.028L54.6369 34.3314C52.4436 32.9625 49.9435 32.2891 47.168 32.2891V34.2891ZM53.585 36.0324C55.4376 37.1674 56.8799 38.809 57.9073 40.9973L59.7177 40.1473C58.5394 37.6376 56.845 35.6842 54.6298 34.327L53.585 36.0324ZM57.9105 41.0039C58.9523 43.1812 59.4883 45.7289 59.4883 48.6719H61.4883C61.4883 45.4847 60.907 42.6326 59.7145 40.1406L57.9105 41.0039ZM59.4883 48.6719V50.0684H61.4883V48.6719H59.4883ZM54.957 48.6504C54.957 45.2769 54.3576 42.5493 53.0187 40.6064L51.3719 41.7412C52.382 43.2072 52.957 45.464 52.957 48.6504H54.957ZM53.0187 40.6064C51.6465 38.6149 49.6538 37.6172 47.168 37.6172V39.6172C49.0364 39.6172 50.3952 40.3239 51.3719 41.7412L53.0187 40.6064ZM47.168 37.6172C44.6974 37.6172 42.7133 38.6068 41.3409 40.5817L42.9833 41.723C43.9599 40.3177 45.313 39.6172 47.168 39.6172V37.6172ZM41.3432 40.5784C40.0012 42.4932 39.3937 45.1939 39.3789 48.5386L41.3789 48.5474C41.3928 45.3894 41.974 43.1631 42.981 41.7263L41.3432 40.5784ZM39.3789 48.543V50.0684H41.3789V48.543H39.3789ZM39.3789 50.0684C39.3789 53.3658 39.982 56.0668 41.3086 58.0567L42.9727 56.9473C41.9503 55.4136 41.3789 53.1589 41.3789 50.0684H39.3789ZM41.3086 58.0567C42.6776 60.1102 44.6876 61.1445 47.2109 61.1445V59.1445C45.3228 59.1445 43.9526 58.4171 42.9727 56.9473L41.3086 58.0567ZM47.2109 61.1445C49.6817 61.1445 51.6612 60.1544 53.0198 58.1753L51.3709 57.0434C50.4091 58.4446 49.0657 59.1445 47.2109 59.1445V61.1445ZM53.022 58.1721C54.3418 56.2331 54.9423 53.5249 54.957 50.1802L52.957 50.1714C52.9431 53.3293 52.3691 55.5768 51.3686 57.0467L53.022 58.1721ZM54.957 50.1758V48.6504H52.957V50.1758H54.957ZM86.334 52.2168L87.18 51.6836L86.8858 51.2168H86.334V52.2168ZM82.6172 52.2168V51.2168H81.6172V52.2168H82.6172ZM82.6172 65V66H83.6172V65H82.6172ZM76.1719 65H75.1719V66H76.1719V65ZM76.1719 33.7188V32.7188H75.1719V33.7188H76.1719ZM82.6172 33.7188H83.6172V32.7188H82.6172V33.7188ZM82.6172 46.2441H81.6172V47.2441H82.6172V46.2441ZM85.5605 46.2441V47.2441H86.1216L86.414 46.7653L85.5605 46.2441ZM93.209 33.7188V32.7188H92.6479L92.3555 33.1976L93.209 33.7188ZM101.072 33.7188L101.91 34.2647L102.918 32.7188H101.072V33.7188ZM91.4258 48.5215L90.588 47.9755L90.2336 48.5194L90.5861 49.0645L91.4258 48.5215ZM102.082 65V66H103.92L102.922 64.457L102.082 65ZM94.3906 65L93.5446 65.5332L93.8388 66H94.3906V65ZM86.334 51.2168H82.6172V53.2168H86.334V51.2168ZM81.6172 52.2168V65H83.6172V52.2168H81.6172ZM82.6172 64H76.1719V66H82.6172V64ZM77.1719 65V33.7188H75.1719V65H77.1719ZM76.1719 34.7188H82.6172V32.7188H76.1719V34.7188ZM81.6172 33.7188V46.2441H83.6172V33.7188H81.6172ZM82.6172 47.2441H85.5605V45.2441H82.6172V47.2441ZM86.414 46.7653L94.0624 34.2399L92.3555 33.1976L84.7071 45.723L86.414 46.7653ZM93.209 34.7188H101.072V32.7188H93.209V34.7188ZM100.234 33.1728L90.588 47.9755L92.2636 49.0675L101.91 34.2647L100.234 33.1728ZM90.5861 49.0645L101.242 65.543L102.922 64.457L92.2655 47.9785L90.5861 49.0645ZM102.082 64H94.3906V66H102.082V64ZM95.2366 64.4668L87.18 51.6836L85.488 52.75L93.5446 65.5332L95.2366 64.4668ZM130.033 65V66H131.033V65H130.033ZM123.588 65H122.588V66H123.588V65ZM123.588 51.5938H124.588V50.5938H123.588V51.5938ZM111.02 51.5938V50.5938H110.02V51.5938H111.02ZM111.02 65V66H112.02V65H111.02ZM104.574 65H103.574V66H104.574V65ZM104.574 33.7188V32.7188H103.574V33.7188H104.574ZM111.02 33.7188H112.02V32.7188H111.02V33.7188ZM111.02 46.3945H110.02V47.3945H111.02V46.3945ZM123.588 46.3945V47.3945H124.588V46.3945H123.588ZM123.588 33.7188V32.7188H122.588V33.7188H123.588ZM130.033 33.7188H131.033V32.7188H130.033V33.7188ZM130.033 64H123.588V66H130.033V64ZM124.588 65V51.5938H122.588V65H124.588ZM123.588 50.5938H111.02V52.5938H123.588V50.5938ZM110.02 51.5938V65H112.02V51.5938H110.02ZM111.02 64H104.574V66H111.02V64ZM105.574 65V33.7188H103.574V65H105.574ZM104.574 34.7188H111.02V32.7188H104.574V34.7188ZM110.02 33.7188V46.3945H112.02V33.7188H110.02ZM111.02 47.3945H123.588V45.3945H111.02V47.3945ZM124.588 46.3945V33.7188H122.588V46.3945H124.588ZM123.588 34.7188H130.033V32.7188H123.588V34.7188ZM129.033 33.7188V65H131.033V33.7188H129.033ZM154.439 33.7188V32.7188H153.874L153.583 33.2032L154.439 33.7188ZM160.906 33.7188H161.906V32.7188H160.906V33.7188ZM160.906 65V66H161.906V65H160.906ZM154.439 65H153.439V66H154.439V65ZM154.439 44.2246H155.439V40.6292L153.583 43.7083L154.439 44.2246ZM141.914 65V66H142.479L142.77 65.5163L141.914 65ZM135.469 65H134.469V66H135.469V65ZM135.469 33.7188V32.7188H134.469V33.7188H135.469ZM141.914 33.7188H142.914V32.7188H141.914V33.7188ZM141.914 54.5371H140.914V58.1389L142.771 55.0526L141.914 54.5371ZM154.439 34.7188H160.906V32.7188H154.439V34.7188ZM159.906 33.7188V65H161.906V33.7188H159.906ZM160.906 64H154.439V66H160.906V64ZM155.439 65V44.2246H153.439V65H155.439ZM153.583 43.7083L141.058 64.4837L142.77 65.5163L155.296 44.7409L153.583 43.7083ZM141.914 64H135.469V66H141.914V64ZM136.469 65V33.7188H134.469V65H136.469ZM135.469 34.7188H141.914V32.7188H135.469V34.7188ZM140.914 33.7188V54.5371H142.914V33.7188H140.914ZM142.771 55.0526L155.296 34.2343L153.583 33.2032L141.057 54.0216L142.771 55.0526ZM187.01 38.9395V39.9395H188.01V38.9395H187.01ZM172.98 38.9395V37.9395H171.98V38.9395H172.98ZM172.98 65V66H173.98V65H172.98ZM166.535 65H165.535V66H166.535V65ZM166.535 33.7188V32.7188H165.535V33.7188H166.535ZM187.01 33.7188H188.01V32.7188H187.01V33.7188ZM187.01 37.9395H172.98V39.9395H187.01V37.9395ZM171.98 38.9395V65H173.98V38.9395H171.98ZM172.98 64H166.535V66H172.98V64ZM167.535 65V33.7188H165.535V65H167.535ZM166.535 34.7188H187.01V32.7188H166.535V34.7188ZM186.01 33.7188V38.9395H188.01V33.7188H186.01ZM209.848 51.4434V52.4434H210.848V51.4434H209.848ZM197.473 51.4434V50.4434H196.473V51.4434H197.473ZM197.473 59.8223H196.473V60.8223H197.473V59.8223ZM211.996 59.8223H212.996V58.8223H211.996V59.8223ZM211.996 65V66H212.996V65H211.996ZM191.027 65H190.027V66H191.027V65ZM191.027 33.7188V32.7188H190.027V33.7188H191.027ZM211.953 33.7188H212.953V32.7188H211.953V33.7188ZM211.953 38.9395V39.9395H212.953V38.9395H211.953ZM197.473 38.9395V37.9395H196.473V38.9395H197.473ZM197.473 46.3945H196.473V47.3945H197.473V46.3945ZM209.848 46.3945H210.848V45.3945H209.848V46.3945ZM209.848 50.4434H197.473V52.4434H209.848V50.4434ZM196.473 51.4434V59.8223H198.473V51.4434H196.473ZM197.473 60.8223H211.996V58.8223H197.473V60.8223ZM210.996 59.8223V65H212.996V59.8223H210.996ZM211.996 64H191.027V66H211.996V64ZM192.027 65V33.7188H190.027V65H192.027ZM191.027 34.7188H211.953V32.7188H191.027V34.7188ZM210.953 33.7188V38.9395H212.953V33.7188H210.953ZM211.953 37.9395H197.473V39.9395H211.953V37.9395ZM196.473 38.9395V46.3945H198.473V38.9395H196.473ZM197.473 47.3945H209.848V45.3945H197.473V47.3945ZM208.848 46.3945V51.4434H210.848V46.3945H208.848Z" fill="#F270AF"/>
</g>
<defs>
<filter id="filter0_df" x="0.847656" y="0.289062" width="244.148" height="98.1406" filterUnits="userSpaceOnUse" color-interpolation-filters="sRGB">
<feFlood flood-opacity="0" result="BackgroundImageFix"/>
<feColorMatrix in="SourceAlpha" type="matrix" values="0 0 0 0 0 0 0 0 0 0 0 0 0 0 0 0 0 0 127 0"/>
<feMorphology radius="2" operator="dilate" in="SourceAlpha" result="effect1_dropShadow"/>
<feOffset/>
<feGaussianBlur stdDeviation="15"/>
<feColorMatrix type="matrix" values="0 0 0 0 0.862745 0 0 0 0 0.14902 0 0 0 0 0.498039 0 0 0 1 0"/>
<feBlend mode="normal" in2="BackgroundImageFix" result="effect1_dropShadow"/>
<feBlend mode="normal" in="SourceGraphic" in2="effect1_dropShadow" result="shape"/>
<feGaussianBlur stdDeviation="2.5" result="effect2_foregroundBlur"/>
</filter>
<filter id="filter1_df" x="0.847656" y="0.289062" width="244.148" height="98.1406" filterUnits="userSpaceOnUse" color-interpolation-filters="sRGB">
<feFlood flood-opacity="0" result="BackgroundImageFix"/>
<feColorMatrix in="SourceAlpha" type="matrix" values="0 0 0 0 0 0 0 0 0 0 0 0 0 0 0 0 0 0 127 0"/>
<feMorphology radius="2" operator="dilate" in="SourceAlpha" result="effect1_dropShadow"/>
<feOffset/>
<feGaussianBlur stdDeviation="15"/>
<feColorMatrix type="matrix" values="0 0 0 0 0.862745 0 0 0 0 0.14902 0 0 0 0 0.498039 0 0 0 1 0"/>
<feBlend mode="normal" in2="BackgroundImageFix" result="effect1_dropShadow"/>
<feBlend mode="normal" in="SourceGraphic" in2="effect1_dropShadow" result="shape"/>
<feGaussianBlur stdDeviation="2.5" result="effect2_foregroundBlur"/>
</filter>
<filter id="filter2_f" x="31.8477" y="31.2891" width="182.148" height="36.1406" filterUnits="userSpaceOnUse" color-interpolation-filters="sRGB">
<feFlood flood-opacity="0" result="BackgroundImageFix"/>
<feBlend mode="normal" in="SourceGraphic" in2="BackgroundImageFix" result="shape"/>
<feGaussianBlur stdDeviation="0.5" result="effect1_foregroundBlur"/>
</filter>
</defs>
</svg>
