<svg width="61" height="25" viewBox="0 0 61 25" fill="none" xmlns="http://www.w3.org/2000/svg">
<path d="M11.1459 3.22312C10.4309 4.06755 9.28704 4.73359 8.14316 4.63844C8.00018 3.49667 8.5602 2.28354 9.21555 1.53425C9.93048 0.666032 11.1816 0.0475737 12.1944 0C12.3136 1.18934 11.8489 2.3549 11.1459 3.22312ZM12.1825 4.86442C10.5262 4.76927 9.10831 5.804 8.32189 5.804C7.52356 5.804 6.3201 4.91199 5.00941 4.93578C3.3055 4.95956 1.72075 5.92293 0.850922 7.45718C-0.936392 10.5257 0.38622 15.069 2.11396 17.5666C2.95995 18.8035 3.97276 20.1594 5.30729 20.1118C6.57033 20.0642 7.07077 19.2912 8.59595 19.2912C10.133 19.2912 10.5739 20.1118 11.9084 20.088C13.2906 20.0642 14.1605 18.8511 15.0064 17.6142C15.9716 16.2108 16.3648 14.843 16.3886 14.7716C16.3648 14.7479 13.7196 13.7369 13.6958 10.6922C13.6719 8.147 15.781 6.93387 15.8763 6.86251C14.6847 5.10228 12.8259 4.91199 12.1825 4.86442ZM21.7506 1.41532V19.9572H24.6341V13.618H28.6258C32.2719 13.618 34.8337 11.1204 34.8337 7.50476C34.8337 3.88915 32.3196 1.41532 28.7211 1.41532H21.7506V1.41532ZM24.6341 3.84158H27.9585C30.4608 3.84158 31.8906 5.17364 31.8906 7.51665C31.8906 9.85966 30.4608 11.2036 27.9466 11.2036H24.6341V3.84158V3.84158ZM40.1003 20.0999C41.9115 20.0999 43.5916 19.1841 44.3541 17.7331H44.4137V19.9572H47.0828V10.7279C47.0828 8.05186 44.938 6.32731 41.6374 6.32731C38.5752 6.32731 36.3112 8.07564 36.2278 10.4781H38.8254C39.0399 9.33635 40.1003 8.58706 41.554 8.58706C43.3175 8.58706 44.3065 9.40771 44.3065 10.9182V11.941L40.708 12.1551C37.3598 12.3573 35.5486 13.725 35.5486 16.1037C35.5486 18.5062 37.4194 20.0999 40.1003 20.0999ZM40.8748 17.8996C39.3378 17.8996 38.3607 17.1622 38.3607 16.0324C38.3607 14.8668 39.302 14.1889 41.1012 14.0818L44.3065 13.8796V14.9263C44.3065 16.6627 42.829 17.8996 40.8748 17.8996ZM50.6455 25C53.4575 25 54.7801 23.9296 55.9359 20.6827L61 6.50571H58.0688L54.6729 17.4596H54.6133L51.2174 6.50571H48.2028L53.0882 20.0048L52.826 20.8254C52.3851 22.2169 51.6702 22.7521 50.3953 22.7521C50.1689 22.7521 49.728 22.7284 49.5493 22.7046V24.9286C49.7161 24.9762 50.431 25 50.6455 25Z" fill="#FCFCFC"/>
</svg>
