<svg width="63" height="25" viewBox="0 0 63 25" fill="none" xmlns="http://www.w3.org/2000/svg">
<g clip-path="url(#clip0)">
<path d="M29.7972 12.2133V19.5416H27.4707V1.44397H33.6411C34.3776 1.42859 35.1099 1.55912 35.7957 1.82803C36.4814 2.09694 37.1071 2.4989 37.6367 3.01071C38.1715 3.49144 38.5972 4.08102 38.885 4.7398C39.1729 5.39858 39.3164 6.11131 39.3057 6.83009C39.321 7.55271 39.1798 8.2701 38.8917 8.93308C38.6036 9.59606 38.1755 10.189 37.6367 10.6711C36.5577 11.6993 35.2258 12.2128 33.6411 12.2119H29.7972V12.2133ZM29.7972 3.67206V9.98957H33.6989C34.1266 10.0022 34.5523 9.92556 34.9487 9.76443C35.3451 9.60331 35.7034 9.36129 36.0009 9.05385C36.2967 8.76641 36.5319 8.42259 36.6925 8.04274C36.8531 7.66289 36.9359 7.25472 36.9359 6.84236C36.9359 6.43001 36.8531 6.02183 36.6925 5.64198C36.5319 5.26214 36.2967 4.91832 36.0009 4.63088C35.7071 4.31696 35.35 4.06901 34.9532 3.90346C34.5563 3.73791 34.1288 3.65854 33.6989 3.67062H29.7972V3.67206Z" fill="white"/>
<path d="M44.6663 6.755C46.3859 6.755 47.7433 7.2142 48.7384 8.13258C49.7336 9.05097 50.2307 10.3101 50.2297 11.9101V19.5416H48.0043V17.8233H47.9032C46.9398 19.2384 45.6585 19.946 44.0593 19.946C42.6942 19.946 41.5522 19.5416 40.6331 18.733C40.1921 18.3619 39.8394 17.897 39.601 17.3724C39.3625 16.8479 39.2441 16.2767 39.2545 15.7006C39.2545 14.4193 39.7391 13.4003 40.7083 12.6436C41.6774 11.887 42.9712 11.5077 44.5897 11.5058C45.9711 11.5058 47.1089 11.7585 48.0029 12.2639V11.7325C48.0055 11.3397 47.9207 10.9513 47.7544 10.5954C47.5882 10.2395 47.3449 9.92503 47.0419 9.67478C46.4267 9.1201 45.6249 8.81745 44.7963 8.82715C43.4967 8.82715 42.4683 9.37491 41.7111 10.4704L39.662 9.18093C40.7892 7.56365 42.4573 6.755 44.6663 6.755ZM41.6562 15.7511C41.6547 16.047 41.7239 16.339 41.8581 16.6027C41.9923 16.8665 42.1877 17.0943 42.4279 17.2673C42.9424 17.6718 43.5811 17.8861 44.2356 17.8738C45.2174 17.8722 46.1585 17.4817 46.8526 16.7879C47.6233 16.063 48.0087 15.2125 48.0087 14.2364C47.2833 13.6588 46.2717 13.37 44.9741 13.37C44.029 13.37 43.241 13.5976 42.61 14.053C41.9727 14.5151 41.6562 15.0768 41.6562 15.7511V15.7511Z" fill="white"/>
<path d="M63.0041 7.15942L55.2355 25.0001H52.8338L55.7167 18.7576L50.6084 7.15942H53.1372L56.8294 16.0545H56.8799L60.4709 7.15942H63.0041Z" fill="white"/>
<path d="M20.3954 10.6337C20.3963 9.92517 20.3363 9.21791 20.2162 8.51965H10.4043V12.5239H16.0241C15.9091 13.1634 15.6657 13.773 15.3086 14.316C14.9514 14.859 14.488 15.3242 13.9461 15.6833V18.2825H17.3001C19.2639 16.4732 20.3954 13.7975 20.3954 10.6337Z" fill="#4285F4"/>
<path d="M10.4044 20.7936C13.2122 20.7936 15.5763 19.8723 17.3002 18.2839L13.9463 15.6847C13.0127 16.3172 11.8105 16.6782 10.4044 16.6782C7.69062 16.6782 5.3872 14.8501 4.56352 12.3866H1.1084V15.0652C1.97437 16.7872 3.30225 18.2347 4.94377 19.2462C6.5853 20.2578 8.47588 20.7935 10.4044 20.7936V20.7936Z" fill="#34A853"/>
<path d="M4.56301 12.3867C4.12756 11.0958 4.12756 9.69789 4.56301 8.40702V5.72839H1.10788C0.379396 7.17695 0 8.77567 0 10.3969C0 12.018 0.379396 13.6168 1.10788 15.0653L4.56301 12.3867Z" fill="#FBBC04"/>
<path d="M10.4044 4.11535C11.8882 4.09113 13.3219 4.65133 14.3957 5.67488L17.3652 2.70745C15.4822 0.940104 12.9876 -0.0301997 10.4044 -5.02938e-05C8.47588 3.75378e-05 6.5853 0.535753 4.94377 1.54729C3.30225 2.55882 1.97437 4.00636 1.1084 5.7283L4.56352 8.40693C5.3872 5.94346 7.69062 4.11535 10.4044 4.11535Z" fill="#EA4335"/>
</g>
<defs>
<clipPath id="clip0">
<rect width="63" height="25" fill="white"/>
</clipPath>
</defs>
</svg>
