<svg width="638" height="454" viewBox="0 0 638 454" fill="none" xmlns="http://www.w3.org/2000/svg">
<g filter="url(#filter0_f)">
<path d="M378 249.5C378 266.897 363.897 281 346.5 281C329.103 281 315 266.897 315 249.5C315 232.103 329.103 218 346.5 218C363.897 218 378 232.103 378 249.5Z" fill="#E63089" fill-opacity="0.6"/>
</g>
<g filter="url(#filter1_f)">
<path d="M236 204.5C236 221.897 221.897 236 204.5 236C187.103 236 173 221.897 173 204.5C173 187.103 187.103 173 204.5 173C221.897 173 236 187.103 236 204.5Z" fill="#E63089" fill-opacity="0.6"/>
</g>
<g filter="url(#filter2_f)">
<path d="M465 204.5C465 221.897 450.897 236 433.5 236C416.103 236 402 221.897 402 204.5C402 187.103 416.103 173 433.5 173C450.897 173 465 187.103 465 204.5Z" fill="#E63089" fill-opacity="0.6"/>
</g>
<g filter="url(#filter3_df)">
<path d="M203.793 250H202.793V251H203.793V250ZM203.793 218.719V217.719H202.793V218.719H203.793ZM223.387 220.91L222.79 221.712L222.793 221.715L223.387 220.91ZM225.148 231.352L225.976 231.913L225.979 231.909L225.148 231.352ZM221.861 233.908L221.5 232.976L218.563 234.114L221.619 234.878L221.861 233.908ZM225.643 236.336L224.844 236.937L224.848 236.943L225.643 236.336ZM224.16 247.637L224.788 248.415L224.16 247.637ZM215.953 250V251L215.961 251L215.953 250ZM210.238 236.379V235.379H209.238V236.379H210.238ZM210.238 244.822H209.238V245.822H210.238V244.822ZM219.305 243.748L219.951 244.511L219.952 244.51L219.305 243.748ZM216.146 236.379L216.161 235.379L216.154 235.379H216.146V236.379ZM210.238 231.824H209.238V232.824H210.238V231.824ZM215.008 231.824V232.824H215.017L215.025 232.824L215.008 231.824ZM218.639 224.885L218.028 225.676L218.035 225.682L218.043 225.688L218.639 224.885ZM210.238 223.939V222.939H209.238V223.939H210.238ZM204.793 250V218.719H202.793V250H204.793ZM203.793 219.719H214.75V217.719H203.793V219.719ZM214.75 219.719C218.442 219.719 221.072 220.433 222.79 221.712L223.984 220.108C221.777 218.465 218.65 217.719 214.75 217.719V219.719ZM222.793 221.715C224.459 222.943 225.33 224.746 225.33 227.291H227.33C227.33 224.221 226.239 221.771 223.98 220.105L222.793 221.715ZM225.33 227.291C225.33 228.643 224.986 229.799 224.318 230.795L225.979 231.909C226.886 230.556 227.33 229.005 227.33 227.291H225.33ZM224.321 230.79C223.656 231.769 222.729 232.499 221.5 232.976L222.223 234.841C223.801 234.229 225.065 233.254 225.976 231.913L224.321 230.79ZM221.619 234.878C223.021 235.229 224.077 235.919 224.844 236.937L226.441 235.734C225.375 234.318 223.91 233.39 222.104 232.938L221.619 234.878ZM224.848 236.943C225.626 237.961 226.039 239.228 226.039 240.805H228.039C228.039 238.858 227.521 237.146 226.437 235.728L224.848 236.943ZM226.039 240.805C226.039 243.584 225.165 245.543 223.533 246.858L224.788 248.415C226.994 246.637 228.039 244.041 228.039 240.805H226.039ZM223.533 246.858C221.852 248.213 219.368 248.972 215.945 249L215.961 251C219.642 250.97 222.63 250.154 224.788 248.415L223.533 246.858ZM215.953 249H203.793V251H215.953V249ZM209.238 236.379V244.822H211.238V236.379H209.238ZM210.238 245.822H215.76V243.822H210.238V245.822ZM215.76 245.822C217.427 245.822 218.868 245.429 219.951 244.511L218.658 242.985C218.051 243.5 217.129 243.822 215.76 243.822V245.822ZM219.952 244.51C221.066 243.563 221.594 242.266 221.594 240.74H219.594C219.594 241.764 219.262 242.472 218.657 242.986L219.952 244.51ZM221.594 240.74C221.594 239.144 221.179 237.765 220.182 236.787C219.192 235.816 217.79 235.403 216.161 235.379L216.132 237.379C217.468 237.398 218.29 237.733 218.782 238.215C219.268 238.692 219.594 239.472 219.594 240.74H221.594ZM216.146 235.379H210.238V237.379H216.146V235.379ZM210.238 232.824H215.008V230.824H210.238V232.824ZM215.025 232.824C216.755 232.794 218.231 232.435 219.289 231.591C220.392 230.711 220.885 229.434 220.885 227.936H218.885C218.885 228.973 218.565 229.611 218.042 230.027C217.475 230.48 216.512 230.798 214.99 230.824L215.025 232.824ZM220.885 227.936C220.885 226.327 220.406 224.95 219.234 224.081L218.043 225.688C218.533 226.051 218.885 226.708 218.885 227.936H220.885ZM219.25 224.093C218.171 223.261 216.603 222.939 214.75 222.939V224.939C216.449 224.939 217.473 225.249 218.028 225.676L219.25 224.093ZM214.75 222.939H210.238V224.939H214.75V222.939ZM209.238 223.939V231.824H211.238V223.939H209.238ZM249.555 243.555L250.502 243.236L250.273 242.555H249.555V243.555ZM238.254 243.555V242.555H237.533L237.305 243.238L238.254 243.555ZM236.105 250V251H236.826L237.054 250.316L236.105 250ZM229.252 250L228.315 249.651L227.813 251H229.252V250ZM240.896 218.719V217.719H240.202L239.959 218.37L240.896 218.719ZM246.869 218.719L247.806 218.368L247.563 217.719H246.869V218.719ZM258.578 250V251H260.02L259.515 249.649L258.578 250ZM251.725 250L250.777 250.319L251.006 251H251.725V250ZM239.994 238.334L239.045 238.019L238.608 239.334H239.994V238.334ZM247.814 238.334V239.334H249.205L248.762 238.016L247.814 238.334ZM243.883 226.625L244.831 226.307L243.878 223.468L242.934 226.31L243.883 226.625ZM249.555 242.555H238.254V244.555H249.555V242.555ZM237.305 243.238L235.157 249.684L237.054 250.316L239.203 243.871L237.305 243.238ZM236.105 249H229.252V251H236.105V249ZM230.189 250.349L241.834 219.068L239.959 218.37L228.315 249.651L230.189 250.349ZM240.896 219.719H246.869V217.719H240.896V219.719ZM245.933 219.069L257.642 250.351L259.515 249.649L247.806 218.368L245.933 219.069ZM258.578 249H251.725V251H258.578V249ZM252.672 249.681L250.502 243.236L248.607 243.874L250.777 250.319L252.672 249.681ZM239.994 239.334H247.814V237.334H239.994V239.334ZM248.762 238.016L244.831 226.307L242.935 226.943L246.866 238.652L248.762 238.016ZM242.934 226.31L239.045 238.019L240.943 238.649L244.832 226.94L242.934 226.31ZM261.5 250H260.5V251H261.5V250ZM261.5 218.719V217.719H260.5V218.719H261.5ZM278.494 220.588L277.995 221.454L278.002 221.458L278.494 220.588ZM283.586 225.873L282.703 226.342L282.704 226.344L283.586 225.873ZM283.607 242.846L282.724 242.376L282.722 242.381L283.607 242.846ZM278.559 248.109L279.055 248.977L278.559 248.109ZM271.189 250V251L271.195 251L271.189 250ZM267.945 223.939V222.939H266.945V223.939H267.945ZM267.945 244.822H266.945V245.822H267.945V244.822ZM278.881 235.283L279.881 235.293V235.283H278.881ZM276.904 226.41L276.123 227.035L276.126 227.038L276.904 226.41ZM262.5 250V218.719H260.5V250H262.5ZM261.5 219.719H271.125V217.719H261.5V219.719ZM271.125 219.719C273.718 219.719 275.999 220.304 277.995 221.454L278.993 219.721C276.664 218.379 274.032 217.719 271.125 217.719V219.719ZM278.002 221.458C280.007 222.593 281.571 224.212 282.703 226.342L284.469 225.404C283.166 222.951 281.336 221.047 278.987 219.718L278.002 221.458ZM282.704 226.344C283.835 228.459 284.412 230.886 284.412 233.65H286.412C286.412 230.599 285.772 227.841 284.468 225.402L282.704 226.344ZM284.412 233.65V235.09H286.412V233.65H284.412ZM284.412 235.09C284.412 237.856 283.841 240.276 282.724 242.376L284.49 243.315C285.78 240.889 286.412 238.139 286.412 235.09H284.412ZM282.722 242.381C281.62 244.479 280.07 246.092 278.062 247.241L279.055 248.977C281.401 247.635 283.217 245.739 284.493 243.311L282.722 242.381ZM278.062 247.241C276.048 248.394 273.763 248.987 271.184 249L271.195 251C274.087 250.985 276.715 250.317 279.055 248.977L278.062 247.241ZM271.189 249H261.5V251H271.189V249ZM266.945 223.939V244.822H268.945V223.939H266.945ZM267.945 245.822H271.061V243.822H267.945V245.822ZM271.061 245.822C273.82 245.822 276.059 244.908 277.617 242.98L276.062 241.723C274.957 243.09 273.343 243.822 271.061 243.822V245.822ZM277.617 242.98C279.143 241.094 279.851 238.485 279.881 235.293L277.881 235.274C277.853 238.211 277.201 240.314 276.062 241.723L277.617 242.98ZM279.881 235.283V233.629H277.881V235.283H279.881ZM279.881 233.629C279.881 230.333 279.201 227.664 277.682 225.782L276.126 227.038C277.243 228.422 277.881 230.565 277.881 233.629H279.881ZM277.685 225.785C276.139 223.853 273.896 222.939 271.125 222.939V224.939C273.424 224.939 275.034 225.673 276.123 227.035L277.685 225.785ZM271.125 222.939H267.945V224.939H271.125V222.939ZM309.496 218.719L310.439 218.385L310.203 217.719H309.496V218.719ZM317.531 241.406L316.589 241.74L317.534 244.409L318.474 241.739L317.531 241.406ZM325.523 218.719V217.719H324.815L324.58 218.386L325.523 218.719ZM333.988 218.719H334.988V217.719H333.988V218.719ZM333.988 250V251H334.988V250H333.988ZM327.521 250H326.521V251H327.521V250ZM327.521 241.449L326.522 241.406L326.521 241.427V241.449H327.521ZM328.166 226.689L329.165 226.733L327.226 226.349L328.166 226.689ZM319.723 250V251H320.424L320.663 250.341L319.723 250ZM315.297 250L314.356 250.34L314.595 251H315.297V250ZM306.875 226.711L307.815 226.371L305.876 226.755L306.875 226.711ZM307.52 241.449H308.52V241.427L308.519 241.406L307.52 241.449ZM307.52 250V251H308.52V250H307.52ZM301.074 250H300.074V251H301.074V250ZM301.074 218.719V217.719H300.074V218.719H301.074ZM308.553 219.053L316.589 241.74L318.474 241.072L310.439 218.385L308.553 219.053ZM318.474 241.739L326.467 219.051L324.58 218.386L316.588 241.074L318.474 241.739ZM325.523 219.719H333.988V217.719H325.523V219.719ZM332.988 218.719V250H334.988V218.719H332.988ZM333.988 249H327.521V251H333.988V249ZM328.521 250V241.449H326.521V250H328.521ZM328.521 241.493L329.165 226.733L327.167 226.646L326.522 241.406L328.521 241.493ZM327.226 226.349L318.782 249.659L320.663 250.341L329.106 227.03L327.226 226.349ZM319.723 249H315.297V251H319.723V249ZM316.237 249.66L307.815 226.371L305.935 227.051L314.356 250.34L316.237 249.66ZM305.876 226.755L306.52 241.493L308.519 241.406L307.874 226.667L305.876 226.755ZM306.52 241.449V250H308.52V241.449H306.52ZM307.52 249H301.074V251H307.52V249ZM302.074 250V218.719H300.074V250H302.074ZM301.074 219.719H309.496V217.719H301.074V219.719ZM357.664 243.555L358.612 243.236L358.383 242.555H357.664V243.555ZM346.363 243.555V242.555H345.643L345.415 243.238L346.363 243.555ZM344.215 250V251H344.936L345.164 250.316L344.215 250ZM337.361 250L336.424 249.651L335.922 251H337.361V250ZM349.006 218.719V217.719H348.311L348.069 218.37L349.006 218.719ZM354.979 218.719L355.915 218.368L355.672 217.719H354.979V218.719ZM366.688 250V251H368.13L367.624 249.649L366.688 250ZM359.834 250L358.886 250.319L359.115 251H359.834V250ZM348.104 238.334L347.154 238.019L346.718 239.334H348.104V238.334ZM355.924 238.334V239.334H357.314L356.872 238.016L355.924 238.334ZM351.992 226.625L352.94 226.307L351.987 223.468L351.043 226.31L351.992 226.625ZM357.664 242.555H346.363V244.555H357.664V242.555ZM345.415 243.238L343.266 249.684L345.164 250.316L347.312 243.871L345.415 243.238ZM344.215 249H337.361V251H344.215V249ZM338.299 250.349L349.943 219.068L348.069 218.37L336.424 249.651L338.299 250.349ZM349.006 219.719H354.979V217.719H349.006V219.719ZM354.042 219.069L365.751 250.351L367.624 249.649L355.915 218.368L354.042 219.069ZM366.688 249H359.834V251H366.688V249ZM360.782 249.681L358.612 243.236L356.716 243.874L358.886 250.319L360.782 249.681ZM348.104 239.334H355.924V237.334H348.104V239.334ZM356.872 238.016L352.94 226.307L351.044 226.943L354.976 238.652L356.872 238.016ZM351.043 226.31L347.154 238.019L349.053 238.649L352.941 226.94L351.043 226.31ZM378.031 218.719L378.974 218.385L378.738 217.719H378.031V218.719ZM386.066 241.406L385.124 241.74L386.069 244.409L387.01 241.739L386.066 241.406ZM394.059 218.719V217.719H393.351L393.115 218.386L394.059 218.719ZM402.523 218.719H403.523V217.719H402.523V218.719ZM402.523 250V251H403.523V250H402.523ZM396.057 250H395.057V251H396.057V250ZM396.057 241.449L395.058 241.406L395.057 241.427V241.449H396.057ZM396.701 226.689L397.7 226.733L395.761 226.349L396.701 226.689ZM388.258 250V251H388.959L389.198 250.341L388.258 250ZM383.832 250L382.892 250.34L383.13 251H383.832V250ZM375.41 226.711L376.351 226.371L374.411 226.755L375.41 226.711ZM376.055 241.449H377.055V241.427L377.054 241.406L376.055 241.449ZM376.055 250V251H377.055V250H376.055ZM369.609 250H368.609V251H369.609V250ZM369.609 218.719V217.719H368.609V218.719H369.609ZM377.089 219.053L385.124 241.74L387.009 241.072L378.974 218.385L377.089 219.053ZM387.01 241.739L395.002 219.051L393.115 218.386L385.123 241.074L387.01 241.739ZM394.059 219.719H402.523V217.719H394.059V219.719ZM401.523 218.719V250H403.523V218.719H401.523ZM402.523 249H396.057V251H402.523V249ZM397.057 250V241.449H395.057V250H397.057ZM397.056 241.493L397.7 226.733L395.702 226.646L395.058 241.406L397.056 241.493ZM395.761 226.349L387.318 249.659L389.198 250.341L397.641 227.03L395.761 226.349ZM388.258 249H383.832V251H388.258V249ZM384.772 249.66L376.351 226.371L374.47 227.051L382.892 250.34L384.772 249.66ZM374.411 226.755L375.056 241.493L377.054 241.406L376.409 226.667L374.411 226.755ZM375.055 241.449V250H377.055V241.449H375.055ZM376.055 249H369.609V251H376.055V249ZM370.609 250V218.719H368.609V250H370.609ZM369.609 219.719H378.031V217.719H369.609V219.719ZM426.199 243.555L427.147 243.236L426.918 242.555H426.199V243.555ZM414.898 243.555V242.555H414.178L413.95 243.238L414.898 243.555ZM412.75 250V251H413.471L413.699 250.316L412.75 250ZM405.896 250L404.959 249.651L404.457 251H405.896V250ZM417.541 218.719V217.719H416.846L416.604 218.37L417.541 218.719ZM423.514 218.719L424.45 218.368L424.207 217.719H423.514V218.719ZM435.223 250V251H436.665L436.159 249.649L435.223 250ZM428.369 250L427.421 250.319L427.651 251H428.369V250ZM416.639 238.334L415.69 238.019L415.253 239.334H416.639V238.334ZM424.459 238.334V239.334H425.85L425.407 238.016L424.459 238.334ZM420.527 226.625L421.475 226.307L420.522 223.468L419.578 226.31L420.527 226.625ZM426.199 242.555H414.898V244.555H426.199V242.555ZM413.95 243.238L411.801 249.684L413.699 250.316L415.847 243.871L413.95 243.238ZM412.75 249H405.896V251H412.75V249ZM406.834 250.349L418.478 219.068L416.604 218.37L404.959 249.651L406.834 250.349ZM417.541 219.719H423.514V217.719H417.541V219.719ZM422.577 219.069L434.286 250.351L436.159 249.649L424.45 218.368L422.577 219.069ZM435.223 249H428.369V251H435.223V249ZM429.317 249.681L427.147 243.236L425.251 243.874L427.421 250.319L429.317 249.681ZM416.639 239.334H424.459V237.334H416.639V239.334ZM425.407 238.016L421.475 226.307L419.579 226.943L423.511 238.652L425.407 238.016ZM419.578 226.31L415.69 238.019L417.588 238.649L421.476 226.94L419.578 226.31Z" fill="#F04196"/>
</g>
<g filter="url(#filter4_df)">
<path d="M203.793 250H202.793V251H203.793V250ZM203.793 218.719V217.719H202.793V218.719H203.793ZM223.387 220.91L222.79 221.712L222.793 221.715L223.387 220.91ZM225.148 231.352L225.976 231.913L225.979 231.909L225.148 231.352ZM221.861 233.908L221.5 232.976L218.563 234.114L221.619 234.878L221.861 233.908ZM225.643 236.336L224.844 236.937L224.848 236.943L225.643 236.336ZM224.16 247.637L224.788 248.415L224.16 247.637ZM215.953 250V251L215.961 251L215.953 250ZM210.238 236.379V235.379H209.238V236.379H210.238ZM210.238 244.822H209.238V245.822H210.238V244.822ZM219.305 243.748L219.951 244.511L219.952 244.51L219.305 243.748ZM216.146 236.379L216.161 235.379L216.154 235.379H216.146V236.379ZM210.238 231.824H209.238V232.824H210.238V231.824ZM215.008 231.824V232.824H215.017L215.025 232.824L215.008 231.824ZM218.639 224.885L218.028 225.676L218.035 225.682L218.043 225.688L218.639 224.885ZM210.238 223.939V222.939H209.238V223.939H210.238ZM204.793 250V218.719H202.793V250H204.793ZM203.793 219.719H214.75V217.719H203.793V219.719ZM214.75 219.719C218.442 219.719 221.072 220.433 222.79 221.712L223.984 220.108C221.777 218.465 218.65 217.719 214.75 217.719V219.719ZM222.793 221.715C224.459 222.943 225.33 224.746 225.33 227.291H227.33C227.33 224.221 226.239 221.771 223.98 220.105L222.793 221.715ZM225.33 227.291C225.33 228.643 224.986 229.799 224.318 230.795L225.979 231.909C226.886 230.556 227.33 229.005 227.33 227.291H225.33ZM224.321 230.79C223.656 231.769 222.729 232.499 221.5 232.976L222.223 234.841C223.801 234.229 225.065 233.254 225.976 231.913L224.321 230.79ZM221.619 234.878C223.021 235.229 224.077 235.919 224.844 236.937L226.441 235.734C225.375 234.318 223.91 233.39 222.104 232.938L221.619 234.878ZM224.848 236.943C225.626 237.961 226.039 239.228 226.039 240.805H228.039C228.039 238.858 227.521 237.146 226.437 235.728L224.848 236.943ZM226.039 240.805C226.039 243.584 225.165 245.543 223.533 246.858L224.788 248.415C226.994 246.637 228.039 244.041 228.039 240.805H226.039ZM223.533 246.858C221.852 248.213 219.368 248.972 215.945 249L215.961 251C219.642 250.97 222.63 250.154 224.788 248.415L223.533 246.858ZM215.953 249H203.793V251H215.953V249ZM209.238 236.379V244.822H211.238V236.379H209.238ZM210.238 245.822H215.76V243.822H210.238V245.822ZM215.76 245.822C217.427 245.822 218.868 245.429 219.951 244.511L218.658 242.985C218.051 243.5 217.129 243.822 215.76 243.822V245.822ZM219.952 244.51C221.066 243.563 221.594 242.266 221.594 240.74H219.594C219.594 241.764 219.262 242.472 218.657 242.986L219.952 244.51ZM221.594 240.74C221.594 239.144 221.179 237.765 220.182 236.787C219.192 235.816 217.79 235.403 216.161 235.379L216.132 237.379C217.468 237.398 218.29 237.733 218.782 238.215C219.268 238.692 219.594 239.472 219.594 240.74H221.594ZM216.146 235.379H210.238V237.379H216.146V235.379ZM210.238 232.824H215.008V230.824H210.238V232.824ZM215.025 232.824C216.755 232.794 218.231 232.435 219.289 231.591C220.392 230.711 220.885 229.434 220.885 227.936H218.885C218.885 228.973 218.565 229.611 218.042 230.027C217.475 230.48 216.512 230.798 214.99 230.824L215.025 232.824ZM220.885 227.936C220.885 226.327 220.406 224.95 219.234 224.081L218.043 225.688C218.533 226.051 218.885 226.708 218.885 227.936H220.885ZM219.25 224.093C218.171 223.261 216.603 222.939 214.75 222.939V224.939C216.449 224.939 217.473 225.249 218.028 225.676L219.25 224.093ZM214.75 222.939H210.238V224.939H214.75V222.939ZM209.238 223.939V231.824H211.238V223.939H209.238ZM249.555 243.555L250.502 243.236L250.273 242.555H249.555V243.555ZM238.254 243.555V242.555H237.533L237.305 243.238L238.254 243.555ZM236.105 250V251H236.826L237.054 250.316L236.105 250ZM229.252 250L228.315 249.651L227.813 251H229.252V250ZM240.896 218.719V217.719H240.202L239.959 218.37L240.896 218.719ZM246.869 218.719L247.806 218.368L247.563 217.719H246.869V218.719ZM258.578 250V251H260.02L259.515 249.649L258.578 250ZM251.725 250L250.777 250.319L251.006 251H251.725V250ZM239.994 238.334L239.045 238.019L238.608 239.334H239.994V238.334ZM247.814 238.334V239.334H249.205L248.762 238.016L247.814 238.334ZM243.883 226.625L244.831 226.307L243.878 223.468L242.934 226.31L243.883 226.625ZM249.555 242.555H238.254V244.555H249.555V242.555ZM237.305 243.238L235.157 249.684L237.054 250.316L239.203 243.871L237.305 243.238ZM236.105 249H229.252V251H236.105V249ZM230.189 250.349L241.834 219.068L239.959 218.37L228.315 249.651L230.189 250.349ZM240.896 219.719H246.869V217.719H240.896V219.719ZM245.933 219.069L257.642 250.351L259.515 249.649L247.806 218.368L245.933 219.069ZM258.578 249H251.725V251H258.578V249ZM252.672 249.681L250.502 243.236L248.607 243.874L250.777 250.319L252.672 249.681ZM239.994 239.334H247.814V237.334H239.994V239.334ZM248.762 238.016L244.831 226.307L242.935 226.943L246.866 238.652L248.762 238.016ZM242.934 226.31L239.045 238.019L240.943 238.649L244.832 226.94L242.934 226.31ZM261.5 250H260.5V251H261.5V250ZM261.5 218.719V217.719H260.5V218.719H261.5ZM278.494 220.588L277.995 221.454L278.002 221.458L278.494 220.588ZM283.586 225.873L282.703 226.342L282.704 226.344L283.586 225.873ZM283.607 242.846L282.724 242.376L282.722 242.381L283.607 242.846ZM278.559 248.109L279.055 248.977L278.559 248.109ZM271.189 250V251L271.195 251L271.189 250ZM267.945 223.939V222.939H266.945V223.939H267.945ZM267.945 244.822H266.945V245.822H267.945V244.822ZM278.881 235.283L279.881 235.293V235.283H278.881ZM276.904 226.41L276.123 227.035L276.126 227.038L276.904 226.41ZM262.5 250V218.719H260.5V250H262.5ZM261.5 219.719H271.125V217.719H261.5V219.719ZM271.125 219.719C273.718 219.719 275.999 220.304 277.995 221.454L278.993 219.721C276.664 218.379 274.032 217.719 271.125 217.719V219.719ZM278.002 221.458C280.007 222.593 281.571 224.212 282.703 226.342L284.469 225.404C283.166 222.951 281.336 221.047 278.987 219.718L278.002 221.458ZM282.704 226.344C283.835 228.459 284.412 230.886 284.412 233.65H286.412C286.412 230.599 285.772 227.841 284.468 225.402L282.704 226.344ZM284.412 233.65V235.09H286.412V233.65H284.412ZM284.412 235.09C284.412 237.856 283.841 240.276 282.724 242.376L284.49 243.315C285.78 240.889 286.412 238.139 286.412 235.09H284.412ZM282.722 242.381C281.62 244.479 280.07 246.092 278.062 247.241L279.055 248.977C281.401 247.635 283.217 245.739 284.493 243.311L282.722 242.381ZM278.062 247.241C276.048 248.394 273.763 248.987 271.184 249L271.195 251C274.087 250.985 276.715 250.317 279.055 248.977L278.062 247.241ZM271.189 249H261.5V251H271.189V249ZM266.945 223.939V244.822H268.945V223.939H266.945ZM267.945 245.822H271.061V243.822H267.945V245.822ZM271.061 245.822C273.82 245.822 276.059 244.908 277.617 242.98L276.062 241.723C274.957 243.09 273.343 243.822 271.061 243.822V245.822ZM277.617 242.98C279.143 241.094 279.851 238.485 279.881 235.293L277.881 235.274C277.853 238.211 277.201 240.314 276.062 241.723L277.617 242.98ZM279.881 235.283V233.629H277.881V235.283H279.881ZM279.881 233.629C279.881 230.333 279.201 227.664 277.682 225.782L276.126 227.038C277.243 228.422 277.881 230.565 277.881 233.629H279.881ZM277.685 225.785C276.139 223.853 273.896 222.939 271.125 222.939V224.939C273.424 224.939 275.034 225.673 276.123 227.035L277.685 225.785ZM271.125 222.939H267.945V224.939H271.125V222.939ZM309.496 218.719L310.439 218.385L310.203 217.719H309.496V218.719ZM317.531 241.406L316.589 241.74L317.534 244.409L318.474 241.739L317.531 241.406ZM325.523 218.719V217.719H324.815L324.58 218.386L325.523 218.719ZM333.988 218.719H334.988V217.719H333.988V218.719ZM333.988 250V251H334.988V250H333.988ZM327.521 250H326.521V251H327.521V250ZM327.521 241.449L326.522 241.406L326.521 241.427V241.449H327.521ZM328.166 226.689L329.165 226.733L327.226 226.349L328.166 226.689ZM319.723 250V251H320.424L320.663 250.341L319.723 250ZM315.297 250L314.356 250.34L314.595 251H315.297V250ZM306.875 226.711L307.815 226.371L305.876 226.755L306.875 226.711ZM307.52 241.449H308.52V241.427L308.519 241.406L307.52 241.449ZM307.52 250V251H308.52V250H307.52ZM301.074 250H300.074V251H301.074V250ZM301.074 218.719V217.719H300.074V218.719H301.074ZM308.553 219.053L316.589 241.74L318.474 241.072L310.439 218.385L308.553 219.053ZM318.474 241.739L326.467 219.051L324.58 218.386L316.588 241.074L318.474 241.739ZM325.523 219.719H333.988V217.719H325.523V219.719ZM332.988 218.719V250H334.988V218.719H332.988ZM333.988 249H327.521V251H333.988V249ZM328.521 250V241.449H326.521V250H328.521ZM328.521 241.493L329.165 226.733L327.167 226.646L326.522 241.406L328.521 241.493ZM327.226 226.349L318.782 249.659L320.663 250.341L329.106 227.03L327.226 226.349ZM319.723 249H315.297V251H319.723V249ZM316.237 249.66L307.815 226.371L305.935 227.051L314.356 250.34L316.237 249.66ZM305.876 226.755L306.52 241.493L308.519 241.406L307.874 226.667L305.876 226.755ZM306.52 241.449V250H308.52V241.449H306.52ZM307.52 249H301.074V251H307.52V249ZM302.074 250V218.719H300.074V250H302.074ZM301.074 219.719H309.496V217.719H301.074V219.719ZM357.664 243.555L358.612 243.236L358.383 242.555H357.664V243.555ZM346.363 243.555V242.555H345.643L345.415 243.238L346.363 243.555ZM344.215 250V251H344.936L345.164 250.316L344.215 250ZM337.361 250L336.424 249.651L335.922 251H337.361V250ZM349.006 218.719V217.719H348.311L348.069 218.37L349.006 218.719ZM354.979 218.719L355.915 218.368L355.672 217.719H354.979V218.719ZM366.688 250V251H368.13L367.624 249.649L366.688 250ZM359.834 250L358.886 250.319L359.115 251H359.834V250ZM348.104 238.334L347.154 238.019L346.718 239.334H348.104V238.334ZM355.924 238.334V239.334H357.314L356.872 238.016L355.924 238.334ZM351.992 226.625L352.94 226.307L351.987 223.468L351.043 226.31L351.992 226.625ZM357.664 242.555H346.363V244.555H357.664V242.555ZM345.415 243.238L343.266 249.684L345.164 250.316L347.312 243.871L345.415 243.238ZM344.215 249H337.361V251H344.215V249ZM338.299 250.349L349.943 219.068L348.069 218.37L336.424 249.651L338.299 250.349ZM349.006 219.719H354.979V217.719H349.006V219.719ZM354.042 219.069L365.751 250.351L367.624 249.649L355.915 218.368L354.042 219.069ZM366.688 249H359.834V251H366.688V249ZM360.782 249.681L358.612 243.236L356.716 243.874L358.886 250.319L360.782 249.681ZM348.104 239.334H355.924V237.334H348.104V239.334ZM356.872 238.016L352.94 226.307L351.044 226.943L354.976 238.652L356.872 238.016ZM351.043 226.31L347.154 238.019L349.053 238.649L352.941 226.94L351.043 226.31ZM378.031 218.719L378.974 218.385L378.738 217.719H378.031V218.719ZM386.066 241.406L385.124 241.74L386.069 244.409L387.01 241.739L386.066 241.406ZM394.059 218.719V217.719H393.351L393.115 218.386L394.059 218.719ZM402.523 218.719H403.523V217.719H402.523V218.719ZM402.523 250V251H403.523V250H402.523ZM396.057 250H395.057V251H396.057V250ZM396.057 241.449L395.058 241.406L395.057 241.427V241.449H396.057ZM396.701 226.689L397.7 226.733L395.761 226.349L396.701 226.689ZM388.258 250V251H388.959L389.198 250.341L388.258 250ZM383.832 250L382.892 250.34L383.13 251H383.832V250ZM375.41 226.711L376.351 226.371L374.411 226.755L375.41 226.711ZM376.055 241.449H377.055V241.427L377.054 241.406L376.055 241.449ZM376.055 250V251H377.055V250H376.055ZM369.609 250H368.609V251H369.609V250ZM369.609 218.719V217.719H368.609V218.719H369.609ZM377.089 219.053L385.124 241.74L387.009 241.072L378.974 218.385L377.089 219.053ZM387.01 241.739L395.002 219.051L393.115 218.386L385.123 241.074L387.01 241.739ZM394.059 219.719H402.523V217.719H394.059V219.719ZM401.523 218.719V250H403.523V218.719H401.523ZM402.523 249H396.057V251H402.523V249ZM397.057 250V241.449H395.057V250H397.057ZM397.056 241.493L397.7 226.733L395.702 226.646L395.058 241.406L397.056 241.493ZM395.761 226.349L387.318 249.659L389.198 250.341L397.641 227.03L395.761 226.349ZM388.258 249H383.832V251H388.258V249ZM384.772 249.66L376.351 226.371L374.47 227.051L382.892 250.34L384.772 249.66ZM374.411 226.755L375.056 241.493L377.054 241.406L376.409 226.667L374.411 226.755ZM375.055 241.449V250H377.055V241.449H375.055ZM376.055 249H369.609V251H376.055V249ZM370.609 250V218.719H368.609V250H370.609ZM369.609 219.719H378.031V217.719H369.609V219.719ZM426.199 243.555L427.147 243.236L426.918 242.555H426.199V243.555ZM414.898 243.555V242.555H414.178L413.95 243.238L414.898 243.555ZM412.75 250V251H413.471L413.699 250.316L412.75 250ZM405.896 250L404.959 249.651L404.457 251H405.896V250ZM417.541 218.719V217.719H416.846L416.604 218.37L417.541 218.719ZM423.514 218.719L424.45 218.368L424.207 217.719H423.514V218.719ZM435.223 250V251H436.665L436.159 249.649L435.223 250ZM428.369 250L427.421 250.319L427.651 251H428.369V250ZM416.639 238.334L415.69 238.019L415.253 239.334H416.639V238.334ZM424.459 238.334V239.334H425.85L425.407 238.016L424.459 238.334ZM420.527 226.625L421.475 226.307L420.522 223.468L419.578 226.31L420.527 226.625ZM426.199 242.555H414.898V244.555H426.199V242.555ZM413.95 243.238L411.801 249.684L413.699 250.316L415.847 243.871L413.95 243.238ZM412.75 249H405.896V251H412.75V249ZM406.834 250.349L418.478 219.068L416.604 218.37L404.959 249.651L406.834 250.349ZM417.541 219.719H423.514V217.719H417.541V219.719ZM422.577 219.069L434.286 250.351L436.159 249.649L424.45 218.368L422.577 219.069ZM435.223 249H428.369V251H435.223V249ZM429.317 249.681L427.147 243.236L425.251 243.874L427.421 250.319L429.317 249.681ZM416.639 239.334H424.459V237.334H416.639V239.334ZM425.407 238.016L421.475 226.307L419.579 226.943L423.511 238.652L425.407 238.016ZM419.578 226.31L415.69 238.019L417.588 238.649L421.476 226.94L419.578 226.31Z" fill="#F04196"/>
</g>
<g filter="url(#filter5_f)">
<path d="M203.793 250H202.793V251H203.793V250ZM203.793 218.719V217.719H202.793V218.719H203.793ZM223.387 220.91L222.79 221.712L222.793 221.715L223.387 220.91ZM225.148 231.352L225.976 231.913L225.979 231.909L225.148 231.352ZM221.861 233.908L221.5 232.976L218.563 234.114L221.619 234.878L221.861 233.908ZM225.643 236.336L224.844 236.937L224.848 236.943L225.643 236.336ZM224.16 247.637L224.788 248.415L224.16 247.637ZM215.953 250V251L215.961 251L215.953 250ZM210.238 236.379V235.379H209.238V236.379H210.238ZM210.238 244.822H209.238V245.822H210.238V244.822ZM219.305 243.748L219.951 244.511L219.952 244.51L219.305 243.748ZM216.146 236.379L216.161 235.379L216.154 235.379H216.146V236.379ZM210.238 231.824H209.238V232.824H210.238V231.824ZM215.008 231.824V232.824H215.017L215.025 232.824L215.008 231.824ZM218.639 224.885L218.028 225.676L218.035 225.682L218.043 225.688L218.639 224.885ZM210.238 223.939V222.939H209.238V223.939H210.238ZM204.793 250V218.719H202.793V250H204.793ZM203.793 219.719H214.75V217.719H203.793V219.719ZM214.75 219.719C218.442 219.719 221.072 220.433 222.79 221.712L223.984 220.108C221.777 218.465 218.65 217.719 214.75 217.719V219.719ZM222.793 221.715C224.459 222.943 225.33 224.746 225.33 227.291H227.33C227.33 224.221 226.239 221.771 223.98 220.105L222.793 221.715ZM225.33 227.291C225.33 228.643 224.986 229.799 224.318 230.795L225.979 231.909C226.886 230.556 227.33 229.005 227.33 227.291H225.33ZM224.321 230.79C223.656 231.769 222.729 232.499 221.5 232.976L222.223 234.841C223.801 234.229 225.065 233.254 225.976 231.913L224.321 230.79ZM221.619 234.878C223.021 235.229 224.077 235.919 224.844 236.937L226.441 235.734C225.375 234.318 223.91 233.39 222.104 232.938L221.619 234.878ZM224.848 236.943C225.626 237.961 226.039 239.228 226.039 240.805H228.039C228.039 238.858 227.521 237.146 226.437 235.728L224.848 236.943ZM226.039 240.805C226.039 243.584 225.165 245.543 223.533 246.858L224.788 248.415C226.994 246.637 228.039 244.041 228.039 240.805H226.039ZM223.533 246.858C221.852 248.213 219.368 248.972 215.945 249L215.961 251C219.642 250.97 222.63 250.154 224.788 248.415L223.533 246.858ZM215.953 249H203.793V251H215.953V249ZM209.238 236.379V244.822H211.238V236.379H209.238ZM210.238 245.822H215.76V243.822H210.238V245.822ZM215.76 245.822C217.427 245.822 218.868 245.429 219.951 244.511L218.658 242.985C218.051 243.5 217.129 243.822 215.76 243.822V245.822ZM219.952 244.51C221.066 243.563 221.594 242.266 221.594 240.74H219.594C219.594 241.764 219.262 242.472 218.657 242.986L219.952 244.51ZM221.594 240.74C221.594 239.144 221.179 237.765 220.182 236.787C219.192 235.816 217.79 235.403 216.161 235.379L216.132 237.379C217.468 237.398 218.29 237.733 218.782 238.215C219.268 238.692 219.594 239.472 219.594 240.74H221.594ZM216.146 235.379H210.238V237.379H216.146V235.379ZM210.238 232.824H215.008V230.824H210.238V232.824ZM215.025 232.824C216.755 232.794 218.231 232.435 219.289 231.591C220.392 230.711 220.885 229.434 220.885 227.936H218.885C218.885 228.973 218.565 229.611 218.042 230.027C217.475 230.48 216.512 230.798 214.99 230.824L215.025 232.824ZM220.885 227.936C220.885 226.327 220.406 224.95 219.234 224.081L218.043 225.688C218.533 226.051 218.885 226.708 218.885 227.936H220.885ZM219.25 224.093C218.171 223.261 216.603 222.939 214.75 222.939V224.939C216.449 224.939 217.473 225.249 218.028 225.676L219.25 224.093ZM214.75 222.939H210.238V224.939H214.75V222.939ZM209.238 223.939V231.824H211.238V223.939H209.238ZM249.555 243.555L250.502 243.236L250.273 242.555H249.555V243.555ZM238.254 243.555V242.555H237.533L237.305 243.238L238.254 243.555ZM236.105 250V251H236.826L237.054 250.316L236.105 250ZM229.252 250L228.315 249.651L227.813 251H229.252V250ZM240.896 218.719V217.719H240.202L239.959 218.37L240.896 218.719ZM246.869 218.719L247.806 218.368L247.563 217.719H246.869V218.719ZM258.578 250V251H260.02L259.515 249.649L258.578 250ZM251.725 250L250.777 250.319L251.006 251H251.725V250ZM239.994 238.334L239.045 238.019L238.608 239.334H239.994V238.334ZM247.814 238.334V239.334H249.205L248.762 238.016L247.814 238.334ZM243.883 226.625L244.831 226.307L243.878 223.468L242.934 226.31L243.883 226.625ZM249.555 242.555H238.254V244.555H249.555V242.555ZM237.305 243.238L235.157 249.684L237.054 250.316L239.203 243.871L237.305 243.238ZM236.105 249H229.252V251H236.105V249ZM230.189 250.349L241.834 219.068L239.959 218.37L228.315 249.651L230.189 250.349ZM240.896 219.719H246.869V217.719H240.896V219.719ZM245.933 219.069L257.642 250.351L259.515 249.649L247.806 218.368L245.933 219.069ZM258.578 249H251.725V251H258.578V249ZM252.672 249.681L250.502 243.236L248.607 243.874L250.777 250.319L252.672 249.681ZM239.994 239.334H247.814V237.334H239.994V239.334ZM248.762 238.016L244.831 226.307L242.935 226.943L246.866 238.652L248.762 238.016ZM242.934 226.31L239.045 238.019L240.943 238.649L244.832 226.94L242.934 226.31ZM261.5 250H260.5V251H261.5V250ZM261.5 218.719V217.719H260.5V218.719H261.5ZM278.494 220.588L277.995 221.454L278.002 221.458L278.494 220.588ZM283.586 225.873L282.703 226.342L282.704 226.344L283.586 225.873ZM283.607 242.846L282.724 242.376L282.722 242.381L283.607 242.846ZM278.559 248.109L279.055 248.977L278.559 248.109ZM271.189 250V251L271.195 251L271.189 250ZM267.945 223.939V222.939H266.945V223.939H267.945ZM267.945 244.822H266.945V245.822H267.945V244.822ZM278.881 235.283L279.881 235.293V235.283H278.881ZM276.904 226.41L276.123 227.035L276.126 227.038L276.904 226.41ZM262.5 250V218.719H260.5V250H262.5ZM261.5 219.719H271.125V217.719H261.5V219.719ZM271.125 219.719C273.718 219.719 275.999 220.304 277.995 221.454L278.993 219.721C276.664 218.379 274.032 217.719 271.125 217.719V219.719ZM278.002 221.458C280.007 222.593 281.571 224.212 282.703 226.342L284.469 225.404C283.166 222.951 281.336 221.047 278.987 219.718L278.002 221.458ZM282.704 226.344C283.835 228.459 284.412 230.886 284.412 233.65H286.412C286.412 230.599 285.772 227.841 284.468 225.402L282.704 226.344ZM284.412 233.65V235.09H286.412V233.65H284.412ZM284.412 235.09C284.412 237.856 283.841 240.276 282.724 242.376L284.49 243.315C285.78 240.889 286.412 238.139 286.412 235.09H284.412ZM282.722 242.381C281.62 244.479 280.07 246.092 278.062 247.241L279.055 248.977C281.401 247.635 283.217 245.739 284.493 243.311L282.722 242.381ZM278.062 247.241C276.048 248.394 273.763 248.987 271.184 249L271.195 251C274.087 250.985 276.715 250.317 279.055 248.977L278.062 247.241ZM271.189 249H261.5V251H271.189V249ZM266.945 223.939V244.822H268.945V223.939H266.945ZM267.945 245.822H271.061V243.822H267.945V245.822ZM271.061 245.822C273.82 245.822 276.059 244.908 277.617 242.98L276.062 241.723C274.957 243.09 273.343 243.822 271.061 243.822V245.822ZM277.617 242.98C279.143 241.094 279.851 238.485 279.881 235.293L277.881 235.274C277.853 238.211 277.201 240.314 276.062 241.723L277.617 242.98ZM279.881 235.283V233.629H277.881V235.283H279.881ZM279.881 233.629C279.881 230.333 279.201 227.664 277.682 225.782L276.126 227.038C277.243 228.422 277.881 230.565 277.881 233.629H279.881ZM277.685 225.785C276.139 223.853 273.896 222.939 271.125 222.939V224.939C273.424 224.939 275.034 225.673 276.123 227.035L277.685 225.785ZM271.125 222.939H267.945V224.939H271.125V222.939ZM309.496 218.719L310.439 218.385L310.203 217.719H309.496V218.719ZM317.531 241.406L316.589 241.74L317.534 244.409L318.474 241.739L317.531 241.406ZM325.523 218.719V217.719H324.815L324.58 218.386L325.523 218.719ZM333.988 218.719H334.988V217.719H333.988V218.719ZM333.988 250V251H334.988V250H333.988ZM327.521 250H326.521V251H327.521V250ZM327.521 241.449L326.522 241.406L326.521 241.427V241.449H327.521ZM328.166 226.689L329.165 226.733L327.226 226.349L328.166 226.689ZM319.723 250V251H320.424L320.663 250.341L319.723 250ZM315.297 250L314.356 250.34L314.595 251H315.297V250ZM306.875 226.711L307.815 226.371L305.876 226.755L306.875 226.711ZM307.52 241.449H308.52V241.427L308.519 241.406L307.52 241.449ZM307.52 250V251H308.52V250H307.52ZM301.074 250H300.074V251H301.074V250ZM301.074 218.719V217.719H300.074V218.719H301.074ZM308.553 219.053L316.589 241.74L318.474 241.072L310.439 218.385L308.553 219.053ZM318.474 241.739L326.467 219.051L324.58 218.386L316.588 241.074L318.474 241.739ZM325.523 219.719H333.988V217.719H325.523V219.719ZM332.988 218.719V250H334.988V218.719H332.988ZM333.988 249H327.521V251H333.988V249ZM328.521 250V241.449H326.521V250H328.521ZM328.521 241.493L329.165 226.733L327.167 226.646L326.522 241.406L328.521 241.493ZM327.226 226.349L318.782 249.659L320.663 250.341L329.106 227.03L327.226 226.349ZM319.723 249H315.297V251H319.723V249ZM316.237 249.66L307.815 226.371L305.935 227.051L314.356 250.34L316.237 249.66ZM305.876 226.755L306.52 241.493L308.519 241.406L307.874 226.667L305.876 226.755ZM306.52 241.449V250H308.52V241.449H306.52ZM307.52 249H301.074V251H307.52V249ZM302.074 250V218.719H300.074V250H302.074ZM301.074 219.719H309.496V217.719H301.074V219.719ZM357.664 243.555L358.612 243.236L358.383 242.555H357.664V243.555ZM346.363 243.555V242.555H345.643L345.415 243.238L346.363 243.555ZM344.215 250V251H344.936L345.164 250.316L344.215 250ZM337.361 250L336.424 249.651L335.922 251H337.361V250ZM349.006 218.719V217.719H348.311L348.069 218.37L349.006 218.719ZM354.979 218.719L355.915 218.368L355.672 217.719H354.979V218.719ZM366.688 250V251H368.13L367.624 249.649L366.688 250ZM359.834 250L358.886 250.319L359.115 251H359.834V250ZM348.104 238.334L347.154 238.019L346.718 239.334H348.104V238.334ZM355.924 238.334V239.334H357.314L356.872 238.016L355.924 238.334ZM351.992 226.625L352.94 226.307L351.987 223.468L351.043 226.31L351.992 226.625ZM357.664 242.555H346.363V244.555H357.664V242.555ZM345.415 243.238L343.266 249.684L345.164 250.316L347.312 243.871L345.415 243.238ZM344.215 249H337.361V251H344.215V249ZM338.299 250.349L349.943 219.068L348.069 218.37L336.424 249.651L338.299 250.349ZM349.006 219.719H354.979V217.719H349.006V219.719ZM354.042 219.069L365.751 250.351L367.624 249.649L355.915 218.368L354.042 219.069ZM366.688 249H359.834V251H366.688V249ZM360.782 249.681L358.612 243.236L356.716 243.874L358.886 250.319L360.782 249.681ZM348.104 239.334H355.924V237.334H348.104V239.334ZM356.872 238.016L352.94 226.307L351.044 226.943L354.976 238.652L356.872 238.016ZM351.043 226.31L347.154 238.019L349.053 238.649L352.941 226.94L351.043 226.31ZM378.031 218.719L378.974 218.385L378.738 217.719H378.031V218.719ZM386.066 241.406L385.124 241.74L386.069 244.409L387.01 241.739L386.066 241.406ZM394.059 218.719V217.719H393.351L393.115 218.386L394.059 218.719ZM402.523 218.719H403.523V217.719H402.523V218.719ZM402.523 250V251H403.523V250H402.523ZM396.057 250H395.057V251H396.057V250ZM396.057 241.449L395.058 241.406L395.057 241.427V241.449H396.057ZM396.701 226.689L397.7 226.733L395.761 226.349L396.701 226.689ZM388.258 250V251H388.959L389.198 250.341L388.258 250ZM383.832 250L382.892 250.34L383.13 251H383.832V250ZM375.41 226.711L376.351 226.371L374.411 226.755L375.41 226.711ZM376.055 241.449H377.055V241.427L377.054 241.406L376.055 241.449ZM376.055 250V251H377.055V250H376.055ZM369.609 250H368.609V251H369.609V250ZM369.609 218.719V217.719H368.609V218.719H369.609ZM377.089 219.053L385.124 241.74L387.009 241.072L378.974 218.385L377.089 219.053ZM387.01 241.739L395.002 219.051L393.115 218.386L385.123 241.074L387.01 241.739ZM394.059 219.719H402.523V217.719H394.059V219.719ZM401.523 218.719V250H403.523V218.719H401.523ZM402.523 249H396.057V251H402.523V249ZM397.057 250V241.449H395.057V250H397.057ZM397.056 241.493L397.7 226.733L395.702 226.646L395.058 241.406L397.056 241.493ZM395.761 226.349L387.318 249.659L389.198 250.341L397.641 227.03L395.761 226.349ZM388.258 249H383.832V251H388.258V249ZM384.772 249.66L376.351 226.371L374.47 227.051L382.892 250.34L384.772 249.66ZM374.411 226.755L375.056 241.493L377.054 241.406L376.409 226.667L374.411 226.755ZM375.055 241.449V250H377.055V241.449H375.055ZM376.055 249H369.609V251H376.055V249ZM370.609 250V218.719H368.609V250H370.609ZM369.609 219.719H378.031V217.719H369.609V219.719ZM426.199 243.555L427.147 243.236L426.918 242.555H426.199V243.555ZM414.898 243.555V242.555H414.178L413.95 243.238L414.898 243.555ZM412.75 250V251H413.471L413.699 250.316L412.75 250ZM405.896 250L404.959 249.651L404.457 251H405.896V250ZM417.541 218.719V217.719H416.846L416.604 218.37L417.541 218.719ZM423.514 218.719L424.45 218.368L424.207 217.719H423.514V218.719ZM435.223 250V251H436.665L436.159 249.649L435.223 250ZM428.369 250L427.421 250.319L427.651 251H428.369V250ZM416.639 238.334L415.69 238.019L415.253 239.334H416.639V238.334ZM424.459 238.334V239.334H425.85L425.407 238.016L424.459 238.334ZM420.527 226.625L421.475 226.307L420.522 223.468L419.578 226.31L420.527 226.625ZM426.199 242.555H414.898V244.555H426.199V242.555ZM413.95 243.238L411.801 249.684L413.699 250.316L415.847 243.871L413.95 243.238ZM412.75 249H405.896V251H412.75V249ZM406.834 250.349L418.478 219.068L416.604 218.37L404.959 249.651L406.834 250.349ZM417.541 219.719H423.514V217.719H417.541V219.719ZM422.577 219.069L434.286 250.351L436.159 249.649L424.45 218.368L422.577 219.069ZM435.223 249H428.369V251H435.223V249ZM429.317 249.681L427.147 243.236L425.251 243.874L427.421 250.319L429.317 249.681ZM416.639 239.334H424.459V237.334H416.639V239.334ZM425.407 238.016L421.475 226.307L419.579 226.943L423.511 238.652L425.407 238.016ZM419.578 226.31L415.69 238.019L417.588 238.649L421.476 226.94L419.578 226.31Z" fill="#F270AF"/>
</g>
<defs>
<filter id="filter0_f" x="142" y="45" width="409" height="409" filterUnits="userSpaceOnUse" color-interpolation-filters="sRGB">
<feFlood flood-opacity="0" result="BackgroundImageFix"/>
<feBlend mode="normal" in="SourceGraphic" in2="BackgroundImageFix" result="shape"/>
<feGaussianBlur stdDeviation="86.5" result="effect1_foregroundBlur"/>
</filter>
<filter id="filter1_f" x="0" y="0" width="409" height="409" filterUnits="userSpaceOnUse" color-interpolation-filters="sRGB">
<feFlood flood-opacity="0" result="BackgroundImageFix"/>
<feBlend mode="normal" in="SourceGraphic" in2="BackgroundImageFix" result="shape"/>
<feGaussianBlur stdDeviation="86.5" result="effect1_foregroundBlur"/>
</filter>
<filter id="filter2_f" x="229" y="0" width="409" height="409" filterUnits="userSpaceOnUse" color-interpolation-filters="sRGB">
<feFlood flood-opacity="0" result="BackgroundImageFix"/>
<feBlend mode="normal" in="SourceGraphic" in2="BackgroundImageFix" result="shape"/>
<feGaussianBlur stdDeviation="86.5" result="effect1_foregroundBlur"/>
</filter>
<filter id="filter3_df" x="170.793" y="185.719" width="297.872" height="97.2813" filterUnits="userSpaceOnUse" color-interpolation-filters="sRGB">
<feFlood flood-opacity="0" result="BackgroundImageFix"/>
<feColorMatrix in="SourceAlpha" type="matrix" values="0 0 0 0 0 0 0 0 0 0 0 0 0 0 0 0 0 0 127 0"/>
<feMorphology radius="2" operator="dilate" in="SourceAlpha" result="effect1_dropShadow"/>
<feOffset/>
<feGaussianBlur stdDeviation="15"/>
<feColorMatrix type="matrix" values="0 0 0 0 0.862745 0 0 0 0 0.14902 0 0 0 0 0.498039 0 0 0 1 0"/>
<feBlend mode="normal" in2="BackgroundImageFix" result="effect1_dropShadow"/>
<feBlend mode="normal" in="SourceGraphic" in2="effect1_dropShadow" result="shape"/>
<feGaussianBlur stdDeviation="2.5" result="effect2_foregroundBlur"/>
</filter>
<filter id="filter4_df" x="170.793" y="185.719" width="297.872" height="97.2813" filterUnits="userSpaceOnUse" color-interpolation-filters="sRGB">
<feFlood flood-opacity="0" result="BackgroundImageFix"/>
<feColorMatrix in="SourceAlpha" type="matrix" values="0 0 0 0 0 0 0 0 0 0 0 0 0 0 0 0 0 0 127 0"/>
<feMorphology radius="2" operator="dilate" in="SourceAlpha" result="effect1_dropShadow"/>
<feOffset/>
<feGaussianBlur stdDeviation="15"/>
<feColorMatrix type="matrix" values="0 0 0 0 0.862745 0 0 0 0 0.14902 0 0 0 0 0.498039 0 0 0 1 0"/>
<feBlend mode="normal" in2="BackgroundImageFix" result="effect1_dropShadow"/>
<feBlend mode="normal" in="SourceGraphic" in2="effect1_dropShadow" result="shape"/>
<feGaussianBlur stdDeviation="2.5" result="effect2_foregroundBlur"/>
</filter>
<filter id="filter5_f" x="201.793" y="216.719" width="235.872" height="35.2813" filterUnits="userSpaceOnUse" color-interpolation-filters="sRGB">
<feFlood flood-opacity="0" result="BackgroundImageFix"/>
<feBlend mode="normal" in="SourceGraphic" in2="BackgroundImageFix" result="shape"/>
<feGaussianBlur stdDeviation="0.5" result="effect1_foregroundBlur"/>
</filter>
</defs>
</svg>
