<svg width="902" height="552" viewBox="0 0 902 552" fill="none" xmlns="http://www.w3.org/2000/svg">
<g filter="url(#filter0_f)">
<path d="M564 319C564 352.137 537.137 379 504 379C470.863 379 444 352.137 444 319C444 285.863 470.863 259 504 259C537.137 259 564 285.863 564 319Z" fill="#E63089" fill-opacity="0.6"/>
</g>
<g filter="url(#filter1_f)">
<path d="M293 233C293 266.137 266.137 293 233 293C199.863 293 173 266.137 173 233C173 199.863 199.863 173 233 173C266.137 173 293 199.863 293 233Z" fill="#E63089" fill-opacity="0.6"/>
</g>
<g filter="url(#filter2_f)">
<path d="M729 233C729 266.137 702.137 293 669 293C635.863 293 609 266.137 609 233C609 199.863 635.863 173 669 173C702.137 173 729 199.863 729 233Z" fill="#E63089" fill-opacity="0.6"/>
</g>
<g filter="url(#filter3_df)">
<path d="M237.697 286H236.697V287H237.697V286ZM237.697 233.391V232.391H236.697V233.391H237.697ZM270.65 237.076L270.053 237.878L270.057 237.881L270.65 237.076ZM273.613 254.637L274.441 255.198L274.444 255.194L273.613 254.637ZM268.085 258.937L267.723 258.004L264.787 259.143L267.842 259.907L268.085 258.937ZM274.444 263.02L273.645 263.621L273.65 263.627L274.444 263.02ZM271.951 282.025L272.579 282.804L271.951 282.025ZM258.148 286V287L258.157 287L258.148 286ZM248.537 263.092V262.092H247.537V263.092H248.537ZM248.537 277.292H247.537V278.292H248.537V277.292ZM263.785 275.485L264.432 276.248L264.433 276.247L263.785 275.485ZM258.474 263.092L258.488 262.092L258.481 262.092H258.474V263.092ZM248.537 255.432H247.537V256.432H248.537V255.432ZM256.559 255.432V256.432H256.567L256.576 256.431L256.559 255.432ZM262.665 243.761L262.054 244.552L262.062 244.558L262.069 244.564L262.665 243.761ZM248.537 242.171V241.171H247.537V242.171H248.537ZM238.697 286V233.391H236.697V286H238.697ZM237.697 234.391H256.125V232.391H237.697V234.391ZM256.125 234.391C262.404 234.391 266.997 235.603 270.053 237.878L271.248 236.274C267.703 233.635 262.612 232.391 256.125 232.391V234.391ZM270.057 237.881C273.06 240.095 274.601 243.349 274.601 247.808H276.601C276.601 242.824 274.841 238.923 271.244 236.271L270.057 237.881ZM274.601 247.808C274.601 250.204 273.988 252.283 272.783 254.08L274.444 255.194C275.888 253.04 276.601 250.566 276.601 247.808H274.601ZM272.786 254.075C271.584 255.846 269.909 257.157 267.723 258.004L268.446 259.869C270.982 258.886 272.993 257.33 274.441 255.198L272.786 254.075ZM267.842 259.907C270.338 260.531 272.254 261.772 273.645 263.621L275.243 262.418C273.552 260.172 271.227 258.691 268.327 257.966L267.842 259.907ZM273.65 263.627C275.063 265.475 275.793 267.758 275.793 270.535H277.793C277.793 267.387 276.957 264.659 275.239 262.412L273.65 263.627ZM275.793 270.535C275.793 275.365 274.264 278.877 271.324 281.247L272.579 282.804C276.094 279.971 277.793 275.823 277.793 270.535H275.793ZM271.324 281.247C268.334 283.656 263.985 284.953 258.14 285L258.157 287C264.259 286.951 269.112 285.598 272.579 282.804L271.324 281.247ZM258.148 285H237.697V287H258.148V285ZM247.537 263.092V277.292H249.537V263.092H247.537ZM248.537 278.292H257.823V276.292H248.537V278.292ZM257.823 278.292C260.526 278.292 262.773 277.654 264.432 276.248L263.139 274.722C261.955 275.725 260.227 276.292 257.823 276.292V278.292ZM264.433 276.247C266.132 274.803 266.953 272.821 266.953 270.427H264.953C264.953 272.32 264.329 273.711 263.138 274.723L264.433 276.247ZM266.953 270.427C266.953 267.854 266.285 265.739 264.783 264.266C263.288 262.799 261.128 262.13 258.488 262.092L258.459 264.092C260.805 264.126 262.386 264.716 263.383 265.694C264.374 266.666 264.953 268.182 264.953 270.427H266.953ZM258.474 262.092H248.537V264.092H258.474V262.092ZM248.537 256.432H256.559V254.432H248.537V256.432ZM256.576 256.431C259.414 256.381 261.721 255.792 263.334 254.506C264.991 253.185 265.761 251.254 265.761 248.892H263.761C263.761 250.793 263.164 252.084 262.087 252.942C260.965 253.837 259.171 254.385 256.541 254.432L256.576 256.431ZM265.761 248.892C265.761 246.317 264.999 244.246 263.261 242.957L262.069 244.564C263.125 245.347 263.761 246.697 263.761 248.892H265.761ZM263.276 242.969C261.641 241.707 259.189 241.171 256.125 241.171V243.171C259.035 243.171 260.943 243.695 262.054 244.552L263.276 242.969ZM256.125 241.171H248.537V243.171H256.125V241.171ZM247.537 242.171V255.432H249.537V242.171H247.537ZM314.66 275.16L315.608 274.841L315.379 274.16H314.66V275.16ZM295.654 275.16V274.16H294.934L294.706 274.844L295.654 275.16ZM292.041 286V287H292.762L292.99 286.316L292.041 286ZM280.515 286L279.577 285.651L279.075 287H280.515V286ZM300.099 233.391V232.391H299.404L299.161 233.042L300.099 233.391ZM310.144 233.391L311.08 233.04L310.837 232.391H310.144V233.391ZM329.836 286V287H331.278L330.772 285.649L329.836 286ZM318.31 286L317.362 286.319L317.591 287H318.31V286ZM298.581 266.38L297.632 266.065L297.195 267.38H298.581V266.38ZM311.733 266.38V267.38H313.124L312.681 266.062L311.733 266.38ZM305.121 246.688L306.069 246.369L305.116 243.53L304.172 246.372L305.121 246.688ZM314.66 274.16H295.654V276.16H314.66V274.16ZM294.706 274.844L291.092 285.684L292.99 286.316L296.603 275.476L294.706 274.844ZM292.041 285H280.515V287H292.041V285ZM281.452 286.349L301.036 233.739L299.161 233.042L279.577 285.651L281.452 286.349ZM300.099 234.391H310.144V232.391H300.099V234.391ZM309.207 233.741L328.899 286.351L330.772 285.649L311.08 233.04L309.207 233.741ZM329.836 285H318.31V287H329.836V285ZM319.257 285.681L315.608 274.841L313.712 275.479L317.362 286.319L319.257 285.681ZM298.581 267.38H311.733V265.38H298.581V267.38ZM312.681 266.062L306.069 246.369L304.173 247.006L310.785 266.698L312.681 266.062ZM304.172 246.372L297.632 266.065L299.53 266.695L306.07 247.003L304.172 246.372ZM334.75 286H333.75V287H334.75V286ZM334.75 233.391V232.391H333.75V233.391H334.75ZM363.331 236.534L362.832 237.401L362.839 237.405L363.331 236.534ZM371.895 245.423L371.011 245.892L371.013 245.894L371.895 245.423ZM371.931 273.968L371.048 273.498L371.045 273.503L371.931 273.968ZM363.439 282.82L363.936 283.688L363.439 282.82ZM351.046 286V287L351.051 287L351.046 286ZM345.59 242.171V241.171H344.59V242.171H345.59ZM345.59 277.292H344.59V278.292H345.59V277.292ZM363.981 261.249L364.981 261.258V261.249H363.981ZM360.657 246.326L359.876 246.951L359.879 246.954L360.657 246.326ZM335.75 286V233.391H333.75V286H335.75ZM334.75 234.391H350.938V232.391H334.75V234.391ZM350.938 234.391C355.406 234.391 359.361 235.401 362.832 237.401L363.83 235.668C360.026 233.476 355.719 232.391 350.938 232.391V234.391ZM362.839 237.405C366.328 239.379 369.05 242.199 371.011 245.892L372.778 244.954C370.644 240.938 367.657 237.833 363.823 235.664L362.839 237.405ZM371.013 245.894C372.973 249.562 373.966 253.756 373.966 258.503H375.966C375.966 253.469 374.911 248.944 372.776 244.951L371.013 245.894ZM373.966 258.503V260.924H375.966V258.503H373.966ZM373.966 260.924C373.966 265.672 372.984 269.855 371.048 273.498L372.814 274.437C374.924 270.468 375.966 265.955 375.966 260.924H373.966ZM371.045 273.503C369.133 277.144 366.436 279.953 362.943 281.952L363.936 283.688C367.766 281.496 370.73 278.404 372.816 274.433L371.045 273.503ZM362.943 281.952C359.444 283.955 355.485 284.977 351.041 285L351.051 287C355.808 286.975 360.112 285.877 363.936 283.688L362.943 281.952ZM351.046 285H334.75V287H351.046V285ZM344.59 242.171V277.292H346.59V242.171H344.59ZM345.59 278.292H350.829V276.292H345.59V278.292ZM350.829 278.292C355.307 278.292 358.86 276.816 361.326 273.766L359.771 272.508C357.758 274.998 354.831 276.292 350.829 276.292V278.292ZM361.326 273.766C363.76 270.756 364.932 266.541 364.981 261.258L362.981 261.24C362.935 266.267 361.818 269.977 359.771 272.508L361.326 273.766ZM364.981 261.249V258.467H362.981V261.249H364.981ZM364.981 258.467C364.981 253.003 363.853 248.693 361.435 245.698L359.879 246.954C361.894 249.451 362.981 253.235 362.981 258.467H364.981ZM361.438 245.701C358.993 242.646 355.437 241.171 350.938 241.171V243.171C354.965 243.171 357.889 244.466 359.876 246.951L361.438 245.701ZM350.938 241.171H345.59V243.171H350.938V241.171ZM415.471 233.391L416.413 233.057L416.177 232.391H415.471V233.391ZM428.984 271.547L428.042 271.881L428.987 274.549L429.928 271.879L428.984 271.547ZM442.426 233.391V232.391H441.718L441.483 233.058L442.426 233.391ZM456.662 233.391H457.662V232.391H456.662V233.391ZM456.662 286V287H457.662V286H456.662ZM445.786 286H444.786V287H445.786V286ZM445.786 271.619L444.787 271.576L444.786 271.597V271.619H445.786ZM446.87 246.796L447.869 246.84L445.93 246.455L446.87 246.796ZM432.67 286V287H433.371L433.61 286.341L432.67 286ZM425.227 286L424.286 286.34L424.525 287H425.227V286ZM411.062 246.832L412.003 246.492L410.063 246.876L411.062 246.832ZM412.146 271.619H413.146V271.597L413.146 271.575L412.146 271.619ZM412.146 286V287H413.146V286H412.146ZM401.307 286H400.307V287H401.307V286ZM401.307 233.391V232.391H400.307V233.391H401.307ZM414.528 233.724L428.042 271.881L429.927 271.213L416.413 233.057L414.528 233.724ZM429.928 271.879L443.369 233.723L441.483 233.058L428.041 271.215L429.928 271.879ZM442.426 234.391H456.662V232.391H442.426V234.391ZM455.662 233.391V286H457.662V233.391H455.662ZM456.662 285H445.786V287H456.662V285ZM446.786 286V271.619H444.786V286H446.786ZM446.785 271.663L447.869 246.84L445.871 246.752L444.787 271.576L446.785 271.663ZM445.93 246.455L431.73 285.659L433.61 286.341L447.81 247.136L445.93 246.455ZM432.67 285H425.227V287H432.67V285ZM426.167 285.66L412.003 246.492L410.122 247.172L424.286 286.34L426.167 285.66ZM410.063 246.876L411.147 271.663L413.146 271.575L412.062 246.788L410.063 246.876ZM411.146 271.619V286H413.146V271.619H411.146ZM412.146 285H401.307V287H412.146V285ZM402.307 286V233.391H400.307V286H402.307ZM401.307 234.391H415.471V232.391H401.307V234.391ZM496.48 275.16L497.428 274.841L497.199 274.16H496.48V275.16ZM477.475 275.16V274.16H476.754L476.526 274.844L477.475 275.16ZM473.861 286V287H474.582L474.81 286.316L473.861 286ZM462.335 286L461.398 285.651L460.896 287H462.335V286ZM481.919 233.391V232.391H481.224L480.982 233.042L481.919 233.391ZM491.964 233.391L492.9 233.04L492.657 232.391H491.964V233.391ZM511.656 286V287H513.098L512.593 285.649L511.656 286ZM500.13 286L499.182 286.319L499.411 287H500.13V286ZM480.401 266.38L479.452 266.065L479.016 267.38H480.401V266.38ZM493.554 266.38V267.38H494.944L494.502 266.062L493.554 266.38ZM486.941 246.688L487.889 246.369L486.936 243.53L485.992 246.372L486.941 246.688ZM496.48 274.16H477.475V276.16H496.48V274.16ZM476.526 274.844L472.913 285.684L474.81 286.316L478.423 275.476L476.526 274.844ZM473.861 285H462.335V287H473.861V285ZM463.272 286.349L482.856 233.739L480.982 233.042L461.398 285.651L463.272 286.349ZM481.919 234.391H491.964V232.391H481.919V234.391ZM491.027 233.741L510.72 286.351L512.593 285.649L492.9 233.04L491.027 233.741ZM511.656 285H500.13V287H511.656V285ZM501.078 285.681L497.428 274.841L495.533 275.479L499.182 286.319L501.078 285.681ZM480.401 267.38H493.554V265.38H480.401V267.38ZM494.502 266.062L487.889 246.369L485.993 247.006L492.606 266.698L494.502 266.062ZM485.992 246.372L479.452 266.065L481.35 266.695L487.89 247.003L485.992 246.372ZM530.734 233.391L531.677 233.057L531.441 232.391H530.734V233.391ZM544.248 271.547L543.305 271.881L544.251 274.549L545.191 271.879L544.248 271.547ZM557.689 233.391V232.391H556.981L556.746 233.058L557.689 233.391ZM571.926 233.391H572.926V232.391H571.926V233.391ZM571.926 286V287H572.926V286H571.926ZM561.05 286H560.05V287H561.05V286ZM561.05 271.619L560.051 271.576L560.05 271.597V271.619H561.05ZM562.134 246.796L563.133 246.84L561.194 246.455L562.134 246.796ZM547.934 286V287H548.635L548.874 286.341L547.934 286ZM540.49 286L539.55 286.34L539.788 287H540.49V286ZM526.326 246.832L527.267 246.492L525.327 246.876L526.326 246.832ZM527.41 271.619H528.41V271.597L528.409 271.575L527.41 271.619ZM527.41 286V287H528.41V286H527.41ZM516.57 286H515.57V287H516.57V286ZM516.57 233.391V232.391H515.57V233.391H516.57ZM529.792 233.724L543.305 271.881L545.191 271.213L531.677 233.057L529.792 233.724ZM545.191 271.879L558.633 233.723L556.746 233.058L543.305 271.215L545.191 271.879ZM557.689 234.391H571.926V232.391H557.689V234.391ZM570.926 233.391V286H572.926V233.391H570.926ZM571.926 285H561.05V287H571.926V285ZM562.05 286V271.619H560.05V286H562.05ZM562.049 271.663L563.133 246.84L561.135 246.752L560.051 271.576L562.049 271.663ZM561.194 246.455L546.993 285.659L548.874 286.341L563.074 247.136L561.194 246.455ZM547.934 285H540.49V287H547.934V285ZM541.431 285.66L527.267 246.492L525.386 247.172L539.55 286.34L541.431 285.66ZM525.327 246.876L526.411 271.663L528.409 271.575L527.325 246.788L525.327 246.876ZM526.41 271.619V286H528.41V271.619H526.41ZM527.41 285H516.57V287H527.41V285ZM517.57 286V233.391H515.57V286H517.57ZM516.57 234.391H530.734V232.391H516.57V234.391ZM611.744 275.16L612.692 274.841L612.463 274.16H611.744V275.16ZM592.738 275.16V274.16H592.018L591.79 274.844L592.738 275.16ZM589.125 286V287H589.846L590.074 286.316L589.125 286ZM577.599 286L576.661 285.651L576.159 287H577.599V286ZM597.183 233.391V232.391H596.488L596.245 233.042L597.183 233.391ZM607.228 233.391L608.164 233.04L607.921 232.391H607.228V233.391ZM626.92 286V287H628.362L627.856 285.649L626.92 286ZM615.394 286L614.446 286.319L614.675 287H615.394V286ZM595.665 266.38L594.716 266.065L594.279 267.38H595.665V266.38ZM608.817 266.38V267.38H610.208L609.765 266.062L608.817 266.38ZM602.205 246.688L603.153 246.369L602.2 243.53L601.256 246.372L602.205 246.688ZM611.744 274.16H592.738V276.16H611.744V274.16ZM591.79 274.844L588.176 285.684L590.074 286.316L593.687 275.476L591.79 274.844ZM589.125 285H577.599V287H589.125V285ZM578.536 286.349L598.12 233.739L596.245 233.042L576.661 285.651L578.536 286.349ZM597.183 234.391H607.228V232.391H597.183V234.391ZM606.291 233.741L625.983 286.351L627.856 285.649L608.164 233.04L606.291 233.741ZM626.92 285H615.394V287H626.92V285ZM616.341 285.681L612.692 274.841L610.796 275.479L614.446 286.319L616.341 285.681ZM595.665 267.38H608.817V265.38H595.665V267.38ZM609.765 266.062L603.153 246.369L601.257 247.006L607.869 266.698L609.765 266.062ZM601.256 246.372L594.716 266.065L596.614 266.695L603.154 247.003L601.256 246.372Z" fill="#F04196"/>
</g>
<g filter="url(#filter4_df)">
<path d="M237.697 286H236.697V287H237.697V286ZM237.697 233.391V232.391H236.697V233.391H237.697ZM270.65 237.076L270.053 237.878L270.057 237.881L270.65 237.076ZM273.613 254.637L274.441 255.198L274.444 255.194L273.613 254.637ZM268.085 258.937L267.723 258.004L264.787 259.143L267.842 259.907L268.085 258.937ZM274.444 263.02L273.645 263.621L273.65 263.627L274.444 263.02ZM271.951 282.025L272.579 282.804L271.951 282.025ZM258.148 286V287L258.157 287L258.148 286ZM248.537 263.092V262.092H247.537V263.092H248.537ZM248.537 277.292H247.537V278.292H248.537V277.292ZM263.785 275.485L264.432 276.248L264.433 276.247L263.785 275.485ZM258.474 263.092L258.488 262.092L258.481 262.092H258.474V263.092ZM248.537 255.432H247.537V256.432H248.537V255.432ZM256.559 255.432V256.432H256.567L256.576 256.431L256.559 255.432ZM262.665 243.761L262.054 244.552L262.062 244.558L262.069 244.564L262.665 243.761ZM248.537 242.171V241.171H247.537V242.171H248.537ZM238.697 286V233.391H236.697V286H238.697ZM237.697 234.391H256.125V232.391H237.697V234.391ZM256.125 234.391C262.404 234.391 266.997 235.603 270.053 237.878L271.248 236.274C267.703 233.635 262.612 232.391 256.125 232.391V234.391ZM270.057 237.881C273.06 240.095 274.601 243.349 274.601 247.808H276.601C276.601 242.824 274.841 238.923 271.244 236.271L270.057 237.881ZM274.601 247.808C274.601 250.204 273.988 252.283 272.783 254.08L274.444 255.194C275.888 253.04 276.601 250.566 276.601 247.808H274.601ZM272.786 254.075C271.584 255.846 269.909 257.157 267.723 258.004L268.446 259.869C270.982 258.886 272.993 257.33 274.441 255.198L272.786 254.075ZM267.842 259.907C270.338 260.531 272.254 261.772 273.645 263.621L275.243 262.418C273.552 260.172 271.227 258.691 268.327 257.966L267.842 259.907ZM273.65 263.627C275.063 265.475 275.793 267.758 275.793 270.535H277.793C277.793 267.387 276.957 264.659 275.239 262.412L273.65 263.627ZM275.793 270.535C275.793 275.365 274.264 278.877 271.324 281.247L272.579 282.804C276.094 279.971 277.793 275.823 277.793 270.535H275.793ZM271.324 281.247C268.334 283.656 263.985 284.953 258.14 285L258.157 287C264.259 286.951 269.112 285.598 272.579 282.804L271.324 281.247ZM258.148 285H237.697V287H258.148V285ZM247.537 263.092V277.292H249.537V263.092H247.537ZM248.537 278.292H257.823V276.292H248.537V278.292ZM257.823 278.292C260.526 278.292 262.773 277.654 264.432 276.248L263.139 274.722C261.955 275.725 260.227 276.292 257.823 276.292V278.292ZM264.433 276.247C266.132 274.803 266.953 272.821 266.953 270.427H264.953C264.953 272.32 264.329 273.711 263.138 274.723L264.433 276.247ZM266.953 270.427C266.953 267.854 266.285 265.739 264.783 264.266C263.288 262.799 261.128 262.13 258.488 262.092L258.459 264.092C260.805 264.126 262.386 264.716 263.383 265.694C264.374 266.666 264.953 268.182 264.953 270.427H266.953ZM258.474 262.092H248.537V264.092H258.474V262.092ZM248.537 256.432H256.559V254.432H248.537V256.432ZM256.576 256.431C259.414 256.381 261.721 255.792 263.334 254.506C264.991 253.185 265.761 251.254 265.761 248.892H263.761C263.761 250.793 263.164 252.084 262.087 252.942C260.965 253.837 259.171 254.385 256.541 254.432L256.576 256.431ZM265.761 248.892C265.761 246.317 264.999 244.246 263.261 242.957L262.069 244.564C263.125 245.347 263.761 246.697 263.761 248.892H265.761ZM263.276 242.969C261.641 241.707 259.189 241.171 256.125 241.171V243.171C259.035 243.171 260.943 243.695 262.054 244.552L263.276 242.969ZM256.125 241.171H248.537V243.171H256.125V241.171ZM247.537 242.171V255.432H249.537V242.171H247.537ZM314.66 275.16L315.608 274.841L315.379 274.16H314.66V275.16ZM295.654 275.16V274.16H294.934L294.706 274.844L295.654 275.16ZM292.041 286V287H292.762L292.99 286.316L292.041 286ZM280.515 286L279.577 285.651L279.075 287H280.515V286ZM300.099 233.391V232.391H299.404L299.161 233.042L300.099 233.391ZM310.144 233.391L311.08 233.04L310.837 232.391H310.144V233.391ZM329.836 286V287H331.278L330.772 285.649L329.836 286ZM318.31 286L317.362 286.319L317.591 287H318.31V286ZM298.581 266.38L297.632 266.065L297.195 267.38H298.581V266.38ZM311.733 266.38V267.38H313.124L312.681 266.062L311.733 266.38ZM305.121 246.688L306.069 246.369L305.116 243.53L304.172 246.372L305.121 246.688ZM314.66 274.16H295.654V276.16H314.66V274.16ZM294.706 274.844L291.092 285.684L292.99 286.316L296.603 275.476L294.706 274.844ZM292.041 285H280.515V287H292.041V285ZM281.452 286.349L301.036 233.739L299.161 233.042L279.577 285.651L281.452 286.349ZM300.099 234.391H310.144V232.391H300.099V234.391ZM309.207 233.741L328.899 286.351L330.772 285.649L311.08 233.04L309.207 233.741ZM329.836 285H318.31V287H329.836V285ZM319.257 285.681L315.608 274.841L313.712 275.479L317.362 286.319L319.257 285.681ZM298.581 267.38H311.733V265.38H298.581V267.38ZM312.681 266.062L306.069 246.369L304.173 247.006L310.785 266.698L312.681 266.062ZM304.172 246.372L297.632 266.065L299.53 266.695L306.07 247.003L304.172 246.372ZM334.75 286H333.75V287H334.75V286ZM334.75 233.391V232.391H333.75V233.391H334.75ZM363.331 236.534L362.832 237.401L362.839 237.405L363.331 236.534ZM371.895 245.423L371.011 245.892L371.013 245.894L371.895 245.423ZM371.931 273.968L371.048 273.498L371.045 273.503L371.931 273.968ZM363.439 282.82L363.936 283.688L363.439 282.82ZM351.046 286V287L351.051 287L351.046 286ZM345.59 242.171V241.171H344.59V242.171H345.59ZM345.59 277.292H344.59V278.292H345.59V277.292ZM363.981 261.249L364.981 261.258V261.249H363.981ZM360.657 246.326L359.876 246.951L359.879 246.954L360.657 246.326ZM335.75 286V233.391H333.75V286H335.75ZM334.75 234.391H350.938V232.391H334.75V234.391ZM350.938 234.391C355.406 234.391 359.361 235.401 362.832 237.401L363.83 235.668C360.026 233.476 355.719 232.391 350.938 232.391V234.391ZM362.839 237.405C366.328 239.379 369.05 242.199 371.011 245.892L372.778 244.954C370.644 240.938 367.657 237.833 363.823 235.664L362.839 237.405ZM371.013 245.894C372.973 249.562 373.966 253.756 373.966 258.503H375.966C375.966 253.469 374.911 248.944 372.776 244.951L371.013 245.894ZM373.966 258.503V260.924H375.966V258.503H373.966ZM373.966 260.924C373.966 265.672 372.984 269.855 371.048 273.498L372.814 274.437C374.924 270.468 375.966 265.955 375.966 260.924H373.966ZM371.045 273.503C369.133 277.144 366.436 279.953 362.943 281.952L363.936 283.688C367.766 281.496 370.73 278.404 372.816 274.433L371.045 273.503ZM362.943 281.952C359.444 283.955 355.485 284.977 351.041 285L351.051 287C355.808 286.975 360.112 285.877 363.936 283.688L362.943 281.952ZM351.046 285H334.75V287H351.046V285ZM344.59 242.171V277.292H346.59V242.171H344.59ZM345.59 278.292H350.829V276.292H345.59V278.292ZM350.829 278.292C355.307 278.292 358.86 276.816 361.326 273.766L359.771 272.508C357.758 274.998 354.831 276.292 350.829 276.292V278.292ZM361.326 273.766C363.76 270.756 364.932 266.541 364.981 261.258L362.981 261.24C362.935 266.267 361.818 269.977 359.771 272.508L361.326 273.766ZM364.981 261.249V258.467H362.981V261.249H364.981ZM364.981 258.467C364.981 253.003 363.853 248.693 361.435 245.698L359.879 246.954C361.894 249.451 362.981 253.235 362.981 258.467H364.981ZM361.438 245.701C358.993 242.646 355.437 241.171 350.938 241.171V243.171C354.965 243.171 357.889 244.466 359.876 246.951L361.438 245.701ZM350.938 241.171H345.59V243.171H350.938V241.171ZM415.471 233.391L416.413 233.057L416.177 232.391H415.471V233.391ZM428.984 271.547L428.042 271.881L428.987 274.549L429.928 271.879L428.984 271.547ZM442.426 233.391V232.391H441.718L441.483 233.058L442.426 233.391ZM456.662 233.391H457.662V232.391H456.662V233.391ZM456.662 286V287H457.662V286H456.662ZM445.786 286H444.786V287H445.786V286ZM445.786 271.619L444.787 271.576L444.786 271.597V271.619H445.786ZM446.87 246.796L447.869 246.84L445.93 246.455L446.87 246.796ZM432.67 286V287H433.371L433.61 286.341L432.67 286ZM425.227 286L424.286 286.34L424.525 287H425.227V286ZM411.062 246.832L412.003 246.492L410.063 246.876L411.062 246.832ZM412.146 271.619H413.146V271.597L413.146 271.575L412.146 271.619ZM412.146 286V287H413.146V286H412.146ZM401.307 286H400.307V287H401.307V286ZM401.307 233.391V232.391H400.307V233.391H401.307ZM414.528 233.724L428.042 271.881L429.927 271.213L416.413 233.057L414.528 233.724ZM429.928 271.879L443.369 233.723L441.483 233.058L428.041 271.215L429.928 271.879ZM442.426 234.391H456.662V232.391H442.426V234.391ZM455.662 233.391V286H457.662V233.391H455.662ZM456.662 285H445.786V287H456.662V285ZM446.786 286V271.619H444.786V286H446.786ZM446.785 271.663L447.869 246.84L445.871 246.752L444.787 271.576L446.785 271.663ZM445.93 246.455L431.73 285.659L433.61 286.341L447.81 247.136L445.93 246.455ZM432.67 285H425.227V287H432.67V285ZM426.167 285.66L412.003 246.492L410.122 247.172L424.286 286.34L426.167 285.66ZM410.063 246.876L411.147 271.663L413.146 271.575L412.062 246.788L410.063 246.876ZM411.146 271.619V286H413.146V271.619H411.146ZM412.146 285H401.307V287H412.146V285ZM402.307 286V233.391H400.307V286H402.307ZM401.307 234.391H415.471V232.391H401.307V234.391ZM496.48 275.16L497.428 274.841L497.199 274.16H496.48V275.16ZM477.475 275.16V274.16H476.754L476.526 274.844L477.475 275.16ZM473.861 286V287H474.582L474.81 286.316L473.861 286ZM462.335 286L461.398 285.651L460.896 287H462.335V286ZM481.919 233.391V232.391H481.224L480.982 233.042L481.919 233.391ZM491.964 233.391L492.9 233.04L492.657 232.391H491.964V233.391ZM511.656 286V287H513.098L512.593 285.649L511.656 286ZM500.13 286L499.182 286.319L499.411 287H500.13V286ZM480.401 266.38L479.452 266.065L479.016 267.38H480.401V266.38ZM493.554 266.38V267.38H494.944L494.502 266.062L493.554 266.38ZM486.941 246.688L487.889 246.369L486.936 243.53L485.992 246.372L486.941 246.688ZM496.48 274.16H477.475V276.16H496.48V274.16ZM476.526 274.844L472.913 285.684L474.81 286.316L478.423 275.476L476.526 274.844ZM473.861 285H462.335V287H473.861V285ZM463.272 286.349L482.856 233.739L480.982 233.042L461.398 285.651L463.272 286.349ZM481.919 234.391H491.964V232.391H481.919V234.391ZM491.027 233.741L510.72 286.351L512.593 285.649L492.9 233.04L491.027 233.741ZM511.656 285H500.13V287H511.656V285ZM501.078 285.681L497.428 274.841L495.533 275.479L499.182 286.319L501.078 285.681ZM480.401 267.38H493.554V265.38H480.401V267.38ZM494.502 266.062L487.889 246.369L485.993 247.006L492.606 266.698L494.502 266.062ZM485.992 246.372L479.452 266.065L481.35 266.695L487.89 247.003L485.992 246.372ZM530.734 233.391L531.677 233.057L531.441 232.391H530.734V233.391ZM544.248 271.547L543.305 271.881L544.251 274.549L545.191 271.879L544.248 271.547ZM557.689 233.391V232.391H556.981L556.746 233.058L557.689 233.391ZM571.926 233.391H572.926V232.391H571.926V233.391ZM571.926 286V287H572.926V286H571.926ZM561.05 286H560.05V287H561.05V286ZM561.05 271.619L560.051 271.576L560.05 271.597V271.619H561.05ZM562.134 246.796L563.133 246.84L561.194 246.455L562.134 246.796ZM547.934 286V287H548.635L548.874 286.341L547.934 286ZM540.49 286L539.55 286.34L539.788 287H540.49V286ZM526.326 246.832L527.267 246.492L525.327 246.876L526.326 246.832ZM527.41 271.619H528.41V271.597L528.409 271.575L527.41 271.619ZM527.41 286V287H528.41V286H527.41ZM516.57 286H515.57V287H516.57V286ZM516.57 233.391V232.391H515.57V233.391H516.57ZM529.792 233.724L543.305 271.881L545.191 271.213L531.677 233.057L529.792 233.724ZM545.191 271.879L558.633 233.723L556.746 233.058L543.305 271.215L545.191 271.879ZM557.689 234.391H571.926V232.391H557.689V234.391ZM570.926 233.391V286H572.926V233.391H570.926ZM571.926 285H561.05V287H571.926V285ZM562.05 286V271.619H560.05V286H562.05ZM562.049 271.663L563.133 246.84L561.135 246.752L560.051 271.576L562.049 271.663ZM561.194 246.455L546.993 285.659L548.874 286.341L563.074 247.136L561.194 246.455ZM547.934 285H540.49V287H547.934V285ZM541.431 285.66L527.267 246.492L525.386 247.172L539.55 286.34L541.431 285.66ZM525.327 246.876L526.411 271.663L528.409 271.575L527.325 246.788L525.327 246.876ZM526.41 271.619V286H528.41V271.619H526.41ZM527.41 285H516.57V287H527.41V285ZM517.57 286V233.391H515.57V286H517.57ZM516.57 234.391H530.734V232.391H516.57V234.391ZM611.744 275.16L612.692 274.841L612.463 274.16H611.744V275.16ZM592.738 275.16V274.16H592.018L591.79 274.844L592.738 275.16ZM589.125 286V287H589.846L590.074 286.316L589.125 286ZM577.599 286L576.661 285.651L576.159 287H577.599V286ZM597.183 233.391V232.391H596.488L596.245 233.042L597.183 233.391ZM607.228 233.391L608.164 233.04L607.921 232.391H607.228V233.391ZM626.92 286V287H628.362L627.856 285.649L626.92 286ZM615.394 286L614.446 286.319L614.675 287H615.394V286ZM595.665 266.38L594.716 266.065L594.279 267.38H595.665V266.38ZM608.817 266.38V267.38H610.208L609.765 266.062L608.817 266.38ZM602.205 246.688L603.153 246.369L602.2 243.53L601.256 246.372L602.205 246.688ZM611.744 274.16H592.738V276.16H611.744V274.16ZM591.79 274.844L588.176 285.684L590.074 286.316L593.687 275.476L591.79 274.844ZM589.125 285H577.599V287H589.125V285ZM578.536 286.349L598.12 233.739L596.245 233.042L576.661 285.651L578.536 286.349ZM597.183 234.391H607.228V232.391H597.183V234.391ZM606.291 233.741L625.983 286.351L627.856 285.649L608.164 233.04L606.291 233.741ZM626.92 285H615.394V287H626.92V285ZM616.341 285.681L612.692 274.841L610.796 275.479L614.446 286.319L616.341 285.681ZM595.665 267.38H608.817V265.38H595.665V267.38ZM609.765 266.062L603.153 246.369L601.257 247.006L607.869 266.698L609.765 266.062ZM601.256 246.372L594.716 266.065L596.614 266.695L603.154 247.003L601.256 246.372Z" fill="#F04196"/>
</g>
<g filter="url(#filter5_f)">
<path d="M237.697 286H236.697V287H237.697V286ZM237.697 233.391V232.391H236.697V233.391H237.697ZM270.65 237.076L270.053 237.878L270.057 237.881L270.65 237.076ZM273.613 254.637L274.441 255.198L274.444 255.194L273.613 254.637ZM268.085 258.937L267.723 258.004L264.787 259.143L267.842 259.907L268.085 258.937ZM274.444 263.02L273.645 263.621L273.65 263.627L274.444 263.02ZM271.951 282.025L272.579 282.804L271.951 282.025ZM258.148 286V287L258.157 287L258.148 286ZM248.537 263.092V262.092H247.537V263.092H248.537ZM248.537 277.292H247.537V278.292H248.537V277.292ZM263.785 275.485L264.432 276.248L264.433 276.247L263.785 275.485ZM258.474 263.092L258.488 262.092L258.481 262.092H258.474V263.092ZM248.537 255.432H247.537V256.432H248.537V255.432ZM256.559 255.432V256.432H256.567L256.576 256.431L256.559 255.432ZM262.665 243.761L262.054 244.552L262.062 244.558L262.069 244.564L262.665 243.761ZM248.537 242.171V241.171H247.537V242.171H248.537ZM238.697 286V233.391H236.697V286H238.697ZM237.697 234.391H256.125V232.391H237.697V234.391ZM256.125 234.391C262.404 234.391 266.997 235.603 270.053 237.878L271.248 236.274C267.703 233.635 262.612 232.391 256.125 232.391V234.391ZM270.057 237.881C273.06 240.095 274.601 243.349 274.601 247.808H276.601C276.601 242.824 274.841 238.923 271.244 236.271L270.057 237.881ZM274.601 247.808C274.601 250.204 273.988 252.283 272.783 254.08L274.444 255.194C275.888 253.04 276.601 250.566 276.601 247.808H274.601ZM272.786 254.075C271.584 255.846 269.909 257.157 267.723 258.004L268.446 259.869C270.982 258.886 272.993 257.33 274.441 255.198L272.786 254.075ZM267.842 259.907C270.338 260.531 272.254 261.772 273.645 263.621L275.243 262.418C273.552 260.172 271.227 258.691 268.327 257.966L267.842 259.907ZM273.65 263.627C275.063 265.475 275.793 267.758 275.793 270.535H277.793C277.793 267.387 276.957 264.659 275.239 262.412L273.65 263.627ZM275.793 270.535C275.793 275.365 274.264 278.877 271.324 281.247L272.579 282.804C276.094 279.971 277.793 275.823 277.793 270.535H275.793ZM271.324 281.247C268.334 283.656 263.985 284.953 258.14 285L258.157 287C264.259 286.951 269.112 285.598 272.579 282.804L271.324 281.247ZM258.148 285H237.697V287H258.148V285ZM247.537 263.092V277.292H249.537V263.092H247.537ZM248.537 278.292H257.823V276.292H248.537V278.292ZM257.823 278.292C260.526 278.292 262.773 277.654 264.432 276.248L263.139 274.722C261.955 275.725 260.227 276.292 257.823 276.292V278.292ZM264.433 276.247C266.132 274.803 266.953 272.821 266.953 270.427H264.953C264.953 272.32 264.329 273.711 263.138 274.723L264.433 276.247ZM266.953 270.427C266.953 267.854 266.285 265.739 264.783 264.266C263.288 262.799 261.128 262.13 258.488 262.092L258.459 264.092C260.805 264.126 262.386 264.716 263.383 265.694C264.374 266.666 264.953 268.182 264.953 270.427H266.953ZM258.474 262.092H248.537V264.092H258.474V262.092ZM248.537 256.432H256.559V254.432H248.537V256.432ZM256.576 256.431C259.414 256.381 261.721 255.792 263.334 254.506C264.991 253.185 265.761 251.254 265.761 248.892H263.761C263.761 250.793 263.164 252.084 262.087 252.942C260.965 253.837 259.171 254.385 256.541 254.432L256.576 256.431ZM265.761 248.892C265.761 246.317 264.999 244.246 263.261 242.957L262.069 244.564C263.125 245.347 263.761 246.697 263.761 248.892H265.761ZM263.276 242.969C261.641 241.707 259.189 241.171 256.125 241.171V243.171C259.035 243.171 260.943 243.695 262.054 244.552L263.276 242.969ZM256.125 241.171H248.537V243.171H256.125V241.171ZM247.537 242.171V255.432H249.537V242.171H247.537ZM314.66 275.16L315.608 274.841L315.379 274.16H314.66V275.16ZM295.654 275.16V274.16H294.934L294.706 274.844L295.654 275.16ZM292.041 286V287H292.762L292.99 286.316L292.041 286ZM280.515 286L279.577 285.651L279.075 287H280.515V286ZM300.099 233.391V232.391H299.404L299.161 233.042L300.099 233.391ZM310.144 233.391L311.08 233.04L310.837 232.391H310.144V233.391ZM329.836 286V287H331.278L330.772 285.649L329.836 286ZM318.31 286L317.362 286.319L317.591 287H318.31V286ZM298.581 266.38L297.632 266.065L297.195 267.38H298.581V266.38ZM311.733 266.38V267.38H313.124L312.681 266.062L311.733 266.38ZM305.121 246.688L306.069 246.369L305.116 243.53L304.172 246.372L305.121 246.688ZM314.66 274.16H295.654V276.16H314.66V274.16ZM294.706 274.844L291.092 285.684L292.99 286.316L296.603 275.476L294.706 274.844ZM292.041 285H280.515V287H292.041V285ZM281.452 286.349L301.036 233.739L299.161 233.042L279.577 285.651L281.452 286.349ZM300.099 234.391H310.144V232.391H300.099V234.391ZM309.207 233.741L328.899 286.351L330.772 285.649L311.08 233.04L309.207 233.741ZM329.836 285H318.31V287H329.836V285ZM319.257 285.681L315.608 274.841L313.712 275.479L317.362 286.319L319.257 285.681ZM298.581 267.38H311.733V265.38H298.581V267.38ZM312.681 266.062L306.069 246.369L304.173 247.006L310.785 266.698L312.681 266.062ZM304.172 246.372L297.632 266.065L299.53 266.695L306.07 247.003L304.172 246.372ZM334.75 286H333.75V287H334.75V286ZM334.75 233.391V232.391H333.75V233.391H334.75ZM363.331 236.534L362.832 237.401L362.839 237.405L363.331 236.534ZM371.895 245.423L371.011 245.892L371.013 245.894L371.895 245.423ZM371.931 273.968L371.048 273.498L371.045 273.503L371.931 273.968ZM363.439 282.82L363.936 283.688L363.439 282.82ZM351.046 286V287L351.051 287L351.046 286ZM345.59 242.171V241.171H344.59V242.171H345.59ZM345.59 277.292H344.59V278.292H345.59V277.292ZM363.981 261.249L364.981 261.258V261.249H363.981ZM360.657 246.326L359.876 246.951L359.879 246.954L360.657 246.326ZM335.75 286V233.391H333.75V286H335.75ZM334.75 234.391H350.938V232.391H334.75V234.391ZM350.938 234.391C355.406 234.391 359.361 235.401 362.832 237.401L363.83 235.668C360.026 233.476 355.719 232.391 350.938 232.391V234.391ZM362.839 237.405C366.328 239.379 369.05 242.199 371.011 245.892L372.778 244.954C370.644 240.938 367.657 237.833 363.823 235.664L362.839 237.405ZM371.013 245.894C372.973 249.562 373.966 253.756 373.966 258.503H375.966C375.966 253.469 374.911 248.944 372.776 244.951L371.013 245.894ZM373.966 258.503V260.924H375.966V258.503H373.966ZM373.966 260.924C373.966 265.672 372.984 269.855 371.048 273.498L372.814 274.437C374.924 270.468 375.966 265.955 375.966 260.924H373.966ZM371.045 273.503C369.133 277.144 366.436 279.953 362.943 281.952L363.936 283.688C367.766 281.496 370.73 278.404 372.816 274.433L371.045 273.503ZM362.943 281.952C359.444 283.955 355.485 284.977 351.041 285L351.051 287C355.808 286.975 360.112 285.877 363.936 283.688L362.943 281.952ZM351.046 285H334.75V287H351.046V285ZM344.59 242.171V277.292H346.59V242.171H344.59ZM345.59 278.292H350.829V276.292H345.59V278.292ZM350.829 278.292C355.307 278.292 358.86 276.816 361.326 273.766L359.771 272.508C357.758 274.998 354.831 276.292 350.829 276.292V278.292ZM361.326 273.766C363.76 270.756 364.932 266.541 364.981 261.258L362.981 261.24C362.935 266.267 361.818 269.977 359.771 272.508L361.326 273.766ZM364.981 261.249V258.467H362.981V261.249H364.981ZM364.981 258.467C364.981 253.003 363.853 248.693 361.435 245.698L359.879 246.954C361.894 249.451 362.981 253.235 362.981 258.467H364.981ZM361.438 245.701C358.993 242.646 355.437 241.171 350.938 241.171V243.171C354.965 243.171 357.889 244.466 359.876 246.951L361.438 245.701ZM350.938 241.171H345.59V243.171H350.938V241.171ZM415.471 233.391L416.413 233.057L416.177 232.391H415.471V233.391ZM428.984 271.547L428.042 271.881L428.987 274.549L429.928 271.879L428.984 271.547ZM442.426 233.391V232.391H441.718L441.483 233.058L442.426 233.391ZM456.662 233.391H457.662V232.391H456.662V233.391ZM456.662 286V287H457.662V286H456.662ZM445.786 286H444.786V287H445.786V286ZM445.786 271.619L444.787 271.576L444.786 271.597V271.619H445.786ZM446.87 246.796L447.869 246.84L445.93 246.455L446.87 246.796ZM432.67 286V287H433.371L433.61 286.341L432.67 286ZM425.227 286L424.286 286.34L424.525 287H425.227V286ZM411.062 246.832L412.003 246.492L410.063 246.876L411.062 246.832ZM412.146 271.619H413.146V271.597L413.146 271.575L412.146 271.619ZM412.146 286V287H413.146V286H412.146ZM401.307 286H400.307V287H401.307V286ZM401.307 233.391V232.391H400.307V233.391H401.307ZM414.528 233.724L428.042 271.881L429.927 271.213L416.413 233.057L414.528 233.724ZM429.928 271.879L443.369 233.723L441.483 233.058L428.041 271.215L429.928 271.879ZM442.426 234.391H456.662V232.391H442.426V234.391ZM455.662 233.391V286H457.662V233.391H455.662ZM456.662 285H445.786V287H456.662V285ZM446.786 286V271.619H444.786V286H446.786ZM446.785 271.663L447.869 246.84L445.871 246.752L444.787 271.576L446.785 271.663ZM445.93 246.455L431.73 285.659L433.61 286.341L447.81 247.136L445.93 246.455ZM432.67 285H425.227V287H432.67V285ZM426.167 285.66L412.003 246.492L410.122 247.172L424.286 286.34L426.167 285.66ZM410.063 246.876L411.147 271.663L413.146 271.575L412.062 246.788L410.063 246.876ZM411.146 271.619V286H413.146V271.619H411.146ZM412.146 285H401.307V287H412.146V285ZM402.307 286V233.391H400.307V286H402.307ZM401.307 234.391H415.471V232.391H401.307V234.391ZM496.48 275.16L497.428 274.841L497.199 274.16H496.48V275.16ZM477.475 275.16V274.16H476.754L476.526 274.844L477.475 275.16ZM473.861 286V287H474.582L474.81 286.316L473.861 286ZM462.335 286L461.398 285.651L460.896 287H462.335V286ZM481.919 233.391V232.391H481.224L480.982 233.042L481.919 233.391ZM491.964 233.391L492.9 233.04L492.657 232.391H491.964V233.391ZM511.656 286V287H513.098L512.593 285.649L511.656 286ZM500.13 286L499.182 286.319L499.411 287H500.13V286ZM480.401 266.38L479.452 266.065L479.016 267.38H480.401V266.38ZM493.554 266.38V267.38H494.944L494.502 266.062L493.554 266.38ZM486.941 246.688L487.889 246.369L486.936 243.53L485.992 246.372L486.941 246.688ZM496.48 274.16H477.475V276.16H496.48V274.16ZM476.526 274.844L472.913 285.684L474.81 286.316L478.423 275.476L476.526 274.844ZM473.861 285H462.335V287H473.861V285ZM463.272 286.349L482.856 233.739L480.982 233.042L461.398 285.651L463.272 286.349ZM481.919 234.391H491.964V232.391H481.919V234.391ZM491.027 233.741L510.72 286.351L512.593 285.649L492.9 233.04L491.027 233.741ZM511.656 285H500.13V287H511.656V285ZM501.078 285.681L497.428 274.841L495.533 275.479L499.182 286.319L501.078 285.681ZM480.401 267.38H493.554V265.38H480.401V267.38ZM494.502 266.062L487.889 246.369L485.993 247.006L492.606 266.698L494.502 266.062ZM485.992 246.372L479.452 266.065L481.35 266.695L487.89 247.003L485.992 246.372ZM530.734 233.391L531.677 233.057L531.441 232.391H530.734V233.391ZM544.248 271.547L543.305 271.881L544.251 274.549L545.191 271.879L544.248 271.547ZM557.689 233.391V232.391H556.981L556.746 233.058L557.689 233.391ZM571.926 233.391H572.926V232.391H571.926V233.391ZM571.926 286V287H572.926V286H571.926ZM561.05 286H560.05V287H561.05V286ZM561.05 271.619L560.051 271.576L560.05 271.597V271.619H561.05ZM562.134 246.796L563.133 246.84L561.194 246.455L562.134 246.796ZM547.934 286V287H548.635L548.874 286.341L547.934 286ZM540.49 286L539.55 286.34L539.788 287H540.49V286ZM526.326 246.832L527.267 246.492L525.327 246.876L526.326 246.832ZM527.41 271.619H528.41V271.597L528.409 271.575L527.41 271.619ZM527.41 286V287H528.41V286H527.41ZM516.57 286H515.57V287H516.57V286ZM516.57 233.391V232.391H515.57V233.391H516.57ZM529.792 233.724L543.305 271.881L545.191 271.213L531.677 233.057L529.792 233.724ZM545.191 271.879L558.633 233.723L556.746 233.058L543.305 271.215L545.191 271.879ZM557.689 234.391H571.926V232.391H557.689V234.391ZM570.926 233.391V286H572.926V233.391H570.926ZM571.926 285H561.05V287H571.926V285ZM562.05 286V271.619H560.05V286H562.05ZM562.049 271.663L563.133 246.84L561.135 246.752L560.051 271.576L562.049 271.663ZM561.194 246.455L546.993 285.659L548.874 286.341L563.074 247.136L561.194 246.455ZM547.934 285H540.49V287H547.934V285ZM541.431 285.66L527.267 246.492L525.386 247.172L539.55 286.34L541.431 285.66ZM525.327 246.876L526.411 271.663L528.409 271.575L527.325 246.788L525.327 246.876ZM526.41 271.619V286H528.41V271.619H526.41ZM527.41 285H516.57V287H527.41V285ZM517.57 286V233.391H515.57V286H517.57ZM516.57 234.391H530.734V232.391H516.57V234.391ZM611.744 275.16L612.692 274.841L612.463 274.16H611.744V275.16ZM592.738 275.16V274.16H592.018L591.79 274.844L592.738 275.16ZM589.125 286V287H589.846L590.074 286.316L589.125 286ZM577.599 286L576.661 285.651L576.159 287H577.599V286ZM597.183 233.391V232.391H596.488L596.245 233.042L597.183 233.391ZM607.228 233.391L608.164 233.04L607.921 232.391H607.228V233.391ZM626.92 286V287H628.362L627.856 285.649L626.92 286ZM615.394 286L614.446 286.319L614.675 287H615.394V286ZM595.665 266.38L594.716 266.065L594.279 267.38H595.665V266.38ZM608.817 266.38V267.38H610.208L609.765 266.062L608.817 266.38ZM602.205 246.688L603.153 246.369L602.2 243.53L601.256 246.372L602.205 246.688ZM611.744 274.16H592.738V276.16H611.744V274.16ZM591.79 274.844L588.176 285.684L590.074 286.316L593.687 275.476L591.79 274.844ZM589.125 285H577.599V287H589.125V285ZM578.536 286.349L598.12 233.739L596.245 233.042L576.661 285.651L578.536 286.349ZM597.183 234.391H607.228V232.391H597.183V234.391ZM606.291 233.741L625.983 286.351L627.856 285.649L608.164 233.04L606.291 233.741ZM626.92 285H615.394V287H626.92V285ZM616.341 285.681L612.692 274.841L610.796 275.479L614.446 286.319L616.341 285.681ZM595.665 267.38H608.817V265.38H595.665V267.38ZM609.765 266.062L603.153 246.369L601.257 247.006L607.869 266.698L609.765 266.062ZM601.256 246.372L594.716 266.065L596.614 266.695L603.154 247.003L601.256 246.372Z" fill="#F270AF"/>
</g>
<defs>
<filter id="filter0_f" x="271" y="86" width="466" height="466" filterUnits="userSpaceOnUse" color-interpolation-filters="sRGB">
<feFlood flood-opacity="0" result="BackgroundImageFix"/>
<feBlend mode="normal" in="SourceGraphic" in2="BackgroundImageFix" result="shape"/>
<feGaussianBlur stdDeviation="86.5" result="effect1_foregroundBlur"/>
</filter>
<filter id="filter1_f" x="0" y="0" width="466" height="466" filterUnits="userSpaceOnUse" color-interpolation-filters="sRGB">
<feFlood flood-opacity="0" result="BackgroundImageFix"/>
<feBlend mode="normal" in="SourceGraphic" in2="BackgroundImageFix" result="shape"/>
<feGaussianBlur stdDeviation="86.5" result="effect1_foregroundBlur"/>
</filter>
<filter id="filter2_f" x="436" y="0" width="466" height="466" filterUnits="userSpaceOnUse" color-interpolation-filters="sRGB">
<feFlood flood-opacity="0" result="BackgroundImageFix"/>
<feBlend mode="normal" in="SourceGraphic" in2="BackgroundImageFix" result="shape"/>
<feGaussianBlur stdDeviation="86.5" result="effect1_foregroundBlur"/>
</filter>
<filter id="filter3_df" x="204.697" y="200.391" width="455.665" height="118.609" filterUnits="userSpaceOnUse" color-interpolation-filters="sRGB">
<feFlood flood-opacity="0" result="BackgroundImageFix"/>
<feColorMatrix in="SourceAlpha" type="matrix" values="0 0 0 0 0 0 0 0 0 0 0 0 0 0 0 0 0 0 127 0"/>
<feMorphology radius="2" operator="dilate" in="SourceAlpha" result="effect1_dropShadow"/>
<feOffset/>
<feGaussianBlur stdDeviation="15"/>
<feColorMatrix type="matrix" values="0 0 0 0 0.862745 0 0 0 0 0.14902 0 0 0 0 0.498039 0 0 0 1 0"/>
<feBlend mode="normal" in2="BackgroundImageFix" result="effect1_dropShadow"/>
<feBlend mode="normal" in="SourceGraphic" in2="effect1_dropShadow" result="shape"/>
<feGaussianBlur stdDeviation="2.5" result="effect2_foregroundBlur"/>
</filter>
<filter id="filter4_df" x="204.697" y="200.391" width="455.665" height="118.609" filterUnits="userSpaceOnUse" color-interpolation-filters="sRGB">
<feFlood flood-opacity="0" result="BackgroundImageFix"/>
<feColorMatrix in="SourceAlpha" type="matrix" values="0 0 0 0 0 0 0 0 0 0 0 0 0 0 0 0 0 0 127 0"/>
<feMorphology radius="2" operator="dilate" in="SourceAlpha" result="effect1_dropShadow"/>
<feOffset/>
<feGaussianBlur stdDeviation="15"/>
<feColorMatrix type="matrix" values="0 0 0 0 0.862745 0 0 0 0 0.14902 0 0 0 0 0.498039 0 0 0 1 0"/>
<feBlend mode="normal" in2="BackgroundImageFix" result="effect1_dropShadow"/>
<feBlend mode="normal" in="SourceGraphic" in2="effect1_dropShadow" result="shape"/>
<feGaussianBlur stdDeviation="2.5" result="effect2_foregroundBlur"/>
</filter>
<filter id="filter5_f" x="235.697" y="231.391" width="393.665" height="56.6094" filterUnits="userSpaceOnUse" color-interpolation-filters="sRGB">
<feFlood flood-opacity="0" result="BackgroundImageFix"/>
<feBlend mode="normal" in="SourceGraphic" in2="BackgroundImageFix" result="shape"/>
<feGaussianBlur stdDeviation="0.5" result="effect1_foregroundBlur"/>
</filter>
</defs>
</svg>
