<svg width="48" height="37" viewBox="0 0 48 37" fill="none" xmlns="http://www.w3.org/2000/svg">
<g clip-path="url(#clip0)">
<path d="M8.73452 36.9181V34.4624C8.73452 33.521 8.1577 32.907 7.16886 32.907C6.67444 32.907 6.13882 33.0708 5.76801 33.6028C5.47959 33.1526 5.06757 32.907 4.44955 32.907C4.03753 32.907 3.62552 33.0298 3.2959 33.4801V32.9889H2.43066V36.9181H3.2959V34.7488C3.2959 34.0531 3.66671 33.7256 4.24354 33.7256C4.82036 33.7256 5.10878 34.094 5.10878 34.7488V36.9181H5.97401V34.7488C5.97401 34.0531 6.38603 33.7256 6.92165 33.7256C7.49847 33.7256 7.78689 34.094 7.78689 34.7488V36.9181H8.73452V36.9181ZM21.5483 32.9889H20.1474V31.802H19.2822V32.9889H18.4993V33.7666H19.2822V35.5674C19.2822 36.4679 19.653 37 20.6418 37C21.0126 37 21.4247 36.8772 21.7131 36.7135L21.4659 35.9767C21.2186 36.1404 20.9302 36.1814 20.7242 36.1814C20.3122 36.1814 20.1474 35.9358 20.1474 35.5265V33.7666H21.5483V32.9889V32.9889ZM28.8822 32.907C28.3877 32.907 28.0581 33.1526 27.8521 33.4801V32.9889H26.9869V36.9181H27.8521V34.7079C27.8521 34.0531 28.1405 33.6847 28.6762 33.6847C28.841 33.6847 29.047 33.7256 29.2118 33.7666L29.459 32.948C29.2942 32.907 29.047 32.907 28.8822 32.907V32.907ZM17.7989 33.3163C17.3869 33.0298 16.8101 32.907 16.192 32.907C15.2032 32.907 14.544 33.3982 14.544 34.1758C14.544 34.8307 15.0384 35.1991 15.9036 35.3219L16.3156 35.3628C16.7689 35.4446 17.0161 35.5674 17.0161 35.7721C17.0161 36.0586 16.6865 36.2632 16.1096 36.2632C15.5328 36.2632 15.0796 36.0586 14.7912 35.8539L14.3792 36.5088C14.8324 36.8362 15.4504 37 16.0684 37C17.2221 37 17.8813 36.4679 17.8813 35.7312C17.8813 35.0354 17.3457 34.667 16.5216 34.5442L16.1096 34.5033C15.7388 34.4624 15.4504 34.3805 15.4504 34.1349C15.4504 33.8484 15.7388 33.6847 16.192 33.6847C16.6865 33.6847 17.1809 33.8893 17.4281 34.0121L17.7989 33.3163V33.3163ZM40.7895 32.907C40.295 32.907 39.9654 33.1526 39.7594 33.4801V32.9889H38.8942V36.9181H39.7594V34.7079C39.7594 34.0531 40.0478 33.6847 40.5835 33.6847C40.7483 33.6847 40.9543 33.7256 41.1191 33.7666L41.3663 32.948C41.2015 32.907 40.9543 32.907 40.7895 32.907V32.907ZM29.7474 34.9535C29.7474 36.1404 30.5714 37 31.8487 37C32.4255 37 32.8375 36.8772 33.2495 36.5497L32.8375 35.8539C32.5079 36.0995 32.1783 36.2223 31.8075 36.2223C31.1071 36.2223 30.6126 35.7311 30.6126 34.9535C30.6126 34.2168 31.1071 33.7256 31.8075 33.6847C32.1783 33.6847 32.5079 33.8075 32.8375 34.0531L33.2495 33.3573C32.8375 33.0298 32.4255 32.907 31.8487 32.907C30.5714 32.907 29.7474 33.7665 29.7474 34.9535V34.9535ZM37.7405 34.9535V32.9889H36.8753V33.4801C36.5869 33.1117 36.1749 32.907 35.6393 32.907C34.5268 32.907 33.6616 33.7665 33.6616 34.9535C33.6616 36.1404 34.5268 37 35.6393 37C36.2161 37 36.6281 36.7953 36.8753 36.4269V36.9181H37.7405V34.9535ZM34.568 34.9535C34.568 34.2577 35.0212 33.6847 35.7629 33.6847C36.4633 33.6847 36.9577 34.2168 36.9577 34.9535C36.9577 35.6493 36.4633 36.2223 35.7629 36.2223C35.0212 36.1814 34.568 35.6493 34.568 34.9535ZM24.2264 32.907C23.0727 32.907 22.2487 33.7256 22.2487 34.9535C22.2487 36.1814 23.0727 37 24.2676 37C24.8444 37 25.4212 36.8362 25.8744 36.4679L25.4624 35.8539C25.1328 36.0995 24.7208 36.2632 24.3088 36.2632C23.7732 36.2632 23.2375 36.0177 23.1139 35.3219H26.0392C26.0392 35.1991 26.0392 35.1172 26.0392 34.9944C26.0804 33.7256 25.3388 32.907 24.2264 32.907V32.907ZM24.2264 33.6438C24.762 33.6438 25.1328 33.9712 25.2152 34.5851H23.1551C23.2375 34.0531 23.6083 33.6438 24.2264 33.6438ZM45.6925 34.9535V31.4336H44.8272V33.4801C44.5388 33.1117 44.1268 32.907 43.5912 32.907C42.4787 32.907 41.6135 33.7665 41.6135 34.9535C41.6135 36.1404 42.4787 37 43.5912 37C44.168 37 44.58 36.7953 44.8272 36.4269V36.9181H45.6925V34.9535ZM42.5199 34.9535C42.5199 34.2577 42.9732 33.6847 43.7148 33.6847C44.4152 33.6847 44.9096 34.2168 44.9096 34.9535C44.9096 35.6493 44.4152 36.2223 43.7148 36.2223C42.9732 36.1814 42.5199 35.6493 42.5199 34.9535ZM13.5963 34.9535V32.9889H12.7311V33.4801C12.4427 33.1117 12.0307 32.907 11.495 32.907C10.3826 32.907 9.51735 33.7665 9.51735 34.9535C9.51735 36.1404 10.3826 37 11.495 37C12.0719 37 12.4839 36.7953 12.7311 36.4269V36.9181H13.5963V34.9535ZM10.3826 34.9535C10.3826 34.2577 10.8358 33.6847 11.5774 33.6847C12.2779 33.6847 12.7723 34.2168 12.7723 34.9535C12.7723 35.6493 12.2779 36.2223 11.5774 36.2223C10.8358 36.1814 10.3826 35.6493 10.3826 34.9535Z" fill="white"/>
<path d="M30.4893 3.15149H17.5107V26.3174H30.4893V3.15149Z" fill="#FF5F00"/>
<path d="M18.3348 14.7345C18.3348 10.0277 20.5597 5.85288 23.9794 3.15155C21.4661 1.18695 18.2936 0 14.8326 0C6.63348 0 0 6.5896 0 14.7345C0 22.8794 6.63348 29.469 14.8326 29.469C18.2936 29.469 21.4661 28.2821 23.9794 26.3175C20.5597 23.6571 18.3348 19.4414 18.3348 14.7345Z" fill="#EB001B"/>
<path d="M47.9999 14.7345C47.9999 22.8794 41.3664 29.469 33.1673 29.469C29.7063 29.469 26.5338 28.2821 24.0205 26.3175C27.4815 23.6162 29.6651 19.4414 29.6651 14.7345C29.6651 10.0277 27.4402 5.85288 24.0205 3.15155C26.5338 1.18695 29.7063 0 33.1673 0C41.3664 0 47.9999 6.63053 47.9999 14.7345Z" fill="#F79E1B"/>
</g>
<defs>
<clipPath id="clip0">
<rect width="48" height="37" fill="white"/>
</clipPath>
</defs>
</svg>
