<svg width="66" height="22" viewBox="0 0 66 22" fill="none" xmlns="http://www.w3.org/2000/svg">
<g clip-path="url(#clip0)">
<path d="M28.5994 21.6826H23.2529L26.597 0.385986H31.9432L28.5994 21.6826Z" fill="#00579F"/>
<path d="M47.9813 0.906558C46.9267 0.475652 45.2541 -0.00012207 43.1859 -0.00012207C37.9061 -0.00012207 34.1881 2.89969 34.1653 7.04554C34.1215 10.1043 36.8273 11.8033 38.851 12.8232C40.9195 13.8654 41.6227 14.5456 41.6227 15.4746C41.6016 16.9013 39.9512 17.5589 38.4119 17.5589C36.2774 17.5589 35.1336 17.2199 33.3955 16.4261L32.6915 16.0858L31.9434 20.8665C33.1973 21.4549 35.5076 21.977 37.9061 21.9999C43.516 21.9999 47.1682 19.1449 47.2115 14.7269C47.2328 12.3025 45.804 10.4449 42.7237 8.92696C40.8537 7.95252 39.7085 7.29547 39.7085 6.29846C39.7305 5.39208 40.6771 4.46372 42.788 4.46372C44.5261 4.41825 45.8032 4.84855 46.7706 5.27916L47.2542 5.5053L47.9813 0.906558V0.906558Z" fill="#00579F"/>
<path d="M55.0873 14.1379C55.5276 12.9145 57.2218 8.17934 57.2218 8.17934C57.1996 8.22481 57.6613 6.93329 57.9253 6.14044L58.2989 7.97548C58.2989 7.97548 59.3114 13.0732 59.5312 14.1379C58.6956 14.1379 56.1433 14.1379 55.0873 14.1379ZM61.6868 0.385986H57.5513C56.276 0.385986 55.3071 0.770821 54.7569 2.15297L46.8154 21.6823H52.4253C52.4253 21.6823 53.3489 19.0538 53.5474 18.4877C54.1628 18.4877 59.6201 18.4877 60.4118 18.4877C60.5653 19.2354 61.0498 21.6823 61.0498 21.6823H66.0001L61.6868 0.385986V0.385986Z" fill="#00579F"/>
<path d="M18.7878 0.385986L13.5519 14.9082L12.9797 11.9629C12.0117 8.56447 8.97581 4.87211 5.58789 3.03617L10.3838 21.66H16.0376L24.4413 0.385986H18.7878V0.385986Z" fill="#00579F"/>
<path d="M8.68994 0.385986H0.0880012L0 0.81629C6.71005 2.58358 11.154 6.84356 12.9798 11.9638L11.1098 2.17616C10.802 0.815989 9.85589 0.430854 8.68994 0.385986Z" fill="#FAA61A"/>
</g>
<defs>
<clipPath id="clip0">
<rect width="66" height="22" fill="white"/>
</clipPath>
</defs>
</svg>
